<svg width="86" height="48" viewBox="0 0 86 48" fill="none" xmlns="http://www.w3.org/2000/svg">
<g clip-path="url(#clip0_12534_1645)">
<path fill-rule="evenodd" clip-rule="evenodd" d="M39.7217 37.1088V33.12H40.9936C41.3278 33.1038 41.6557 33.2141 41.9112 33.4288C42.0252 33.5341 42.1147 33.6628 42.1736 33.8059C42.2325 33.949 42.2595 34.1031 42.2526 34.2576C42.2559 34.476 42.1949 34.6907 42.0771 34.8752C41.9605 35.0518 41.7918 35.1881 41.5941 35.2656C41.313 35.358 41.0173 35.3987 40.7215 35.3856H40.2916V37.1136L39.7217 37.1088ZM40.8937 33.6256H40.2964V34.88H40.9276C41.121 34.8939 41.3128 34.837 41.4669 34.72C41.5335 34.6598 41.5854 34.5852 41.6186 34.502C41.6518 34.4188 41.6655 34.3292 41.6585 34.24C41.6585 33.832 41.4025 33.6272 40.8937 33.6272V33.6256ZM43.7917 34.4736C43.977 34.4674 44.1617 34.4986 44.3346 34.5651C44.5075 34.6316 44.6651 34.7322 44.7979 34.8608C44.9285 34.987 45.0314 35.1388 45.1001 35.3065C45.1689 35.4742 45.2019 35.6542 45.1972 35.8352C45.2021 36.0134 45.1683 36.1906 45.098 36.3546C45.0277 36.5186 44.9226 36.6656 44.7899 36.7856C44.5136 37.0401 44.1473 37.1758 43.7708 37.1632C43.5875 37.168 43.405 37.1367 43.234 37.0711C43.0629 37.0055 42.9066 36.9068 42.7742 36.7808C42.5196 36.5273 42.3765 36.1837 42.3765 35.8256C42.3765 35.4674 42.5196 35.1239 42.7742 34.8704C42.9092 34.7413 43.0687 34.6404 43.2434 34.5733C43.4181 34.5063 43.6045 34.4746 43.7917 34.48V34.4736ZM43.7659 34.9536C43.652 34.9486 43.5383 34.967 43.4319 35.0078C43.3255 35.0485 43.2288 35.1107 43.1477 35.1904C43.0677 35.2738 43.0053 35.3722 42.9641 35.4799C42.9229 35.5876 42.9038 35.7024 42.9078 35.8176C42.9022 35.931 42.9207 36.0443 42.962 36.1501C43.0033 36.256 43.0666 36.352 43.1477 36.432C43.232 36.5118 43.3316 36.5739 43.4406 36.6146C43.5496 36.6553 43.6657 36.6737 43.782 36.6688C43.8979 36.6742 44.0137 36.656 44.1222 36.6152C44.2308 36.5745 44.3298 36.5122 44.4131 36.432C44.5409 36.3109 44.6282 36.1538 44.6633 35.9818C44.6983 35.8099 44.6795 35.6314 44.6093 35.4704C44.5391 35.3094 44.4209 35.1737 44.2707 35.0816C44.1205 34.9895 43.9454 34.9453 43.7692 34.9552L43.7659 34.9536ZM49.0209 34.4928H49.5876L48.4236 37.168H48.2513L47.4721 35.3344L46.6977 37.168H46.5287L45.3582 34.4928H45.9201L46.6108 36.0928L47.2837 34.4928H47.675L48.3415 36.0928L49.0322 34.4928H49.0209ZM52.0992 35.84H50.2316C50.2344 36.0664 50.3249 36.283 50.4844 36.4448C50.5642 36.523 50.6591 36.5845 50.7634 36.6254C50.8677 36.6664 50.9792 36.686 51.0913 36.6832C51.4366 36.6826 51.7723 36.5703 52.0476 36.3632V36.872C51.8986 36.9702 51.7358 37.0462 51.5647 37.0976C51.3832 37.1468 51.1956 37.1699 51.0076 37.1664C50.7559 37.1793 50.5062 37.1163 50.2912 36.9856C50.1097 36.8639 49.9619 36.6988 49.8613 36.5056C49.748 36.2855 49.6926 36.0406 49.7003 35.7936C49.6849 35.4362 49.8076 35.0864 50.0432 34.816C50.1544 34.6921 50.2917 34.594 50.4452 34.5288C50.5988 34.4635 50.765 34.4327 50.9319 34.4384C51.0911 34.432 51.2496 34.4616 51.3954 34.5251C51.5413 34.5886 51.6708 34.6842 51.7739 34.8048C51.994 35.0828 52.105 35.4307 52.0863 35.784V35.848L52.0992 35.84ZM50.2509 35.5312H51.5952C51.592 35.3543 51.5258 35.1842 51.4085 35.0512C51.3492 34.9941 51.2787 34.9497 51.2015 34.9208C51.1242 34.8919 51.0418 34.8791 50.9593 34.8832C50.7895 34.8766 50.624 34.937 50.4988 35.0512C50.3694 35.1814 50.2858 35.3498 50.2606 35.5312H50.2509ZM53.2245 34.4896V35.0848L53.2535 35.0368C53.5068 34.6325 53.7596 34.4304 54.0118 34.4304C54.2485 34.4482 54.4698 34.5538 54.6316 34.7264L54.3563 35.184C54.2251 35.0382 54.0435 34.9468 53.8476 34.928C53.7606 34.9294 53.6753 34.9519 53.599 34.9934C53.5227 35.0349 53.4577 35.0943 53.4097 35.1664C53.285 35.33 53.2198 35.5308 53.2245 35.736V37.12H52.7013V34.48L53.2245 34.4896ZM55.6266 33.12H58.9834V33.6304H57.5811V37.12H57.0048V33.6256H55.6266V33.12ZM59.8351 34.4768C60.0204 34.471 60.2049 34.5023 60.3778 34.5688C60.5506 34.6353 60.7083 34.7357 60.8413 34.864C60.972 34.9905 61.0749 35.1425 61.1436 35.3105C61.2123 35.4785 61.2453 35.6587 61.2406 35.84C61.2455 36.0178 61.2118 36.1946 61.1418 36.3583C61.0718 36.522 60.9671 36.6689 60.8349 36.7888C60.5579 37.0432 60.1911 37.1789 59.8142 37.1664C59.6309 37.171 59.4485 37.1397 59.2775 37.074C59.1064 37.0084 58.9501 36.9098 58.8176 36.784C58.6914 36.6587 58.5912 36.5099 58.5229 36.3462C58.4546 36.1824 58.4194 36.0069 58.4194 35.8296C58.4194 35.6523 58.4546 35.4767 58.5229 35.313C58.5912 35.1492 58.6914 35.0004 58.8176 34.8752C58.9527 34.7478 59.112 34.6482 59.2861 34.5823C59.4602 34.5164 59.6457 34.4854 59.8319 34.4912L59.8351 34.4768ZM59.8093 34.9568C59.6955 34.9522 59.5819 34.9708 59.4755 35.0115C59.3692 35.0523 59.2724 35.1142 59.1911 35.1936C59.1113 35.277 59.049 35.3755 59.0081 35.4832C58.9672 35.5909 58.9484 35.7057 58.9528 35.8208C58.9473 35.934 58.9657 36.0472 59.0067 36.153C59.0477 36.2588 59.1105 36.3549 59.1911 36.4352C59.2769 36.5157 59.3782 36.5783 59.4888 36.6192C59.5994 36.6602 59.7172 36.6787 59.8351 36.6736C59.951 36.6781 60.0667 36.6594 60.1751 36.6184C60.2836 36.5774 60.3826 36.5151 60.4662 36.4352C60.5933 36.314 60.6801 36.157 60.7148 35.9853C60.7495 35.8137 60.7305 35.6356 60.6604 35.475C60.5903 35.3144 60.4724 35.1789 60.3226 35.0869C60.1727 34.9948 59.9981 34.9505 59.8222 34.96L59.8093 34.9568ZM63.538 33.12H65.8194V33.6304H64.116V34.848H65.7598V35.36H64.116V36.6064H65.8725V37.1168H63.538V33.12ZM68.5853 35.2V37.0992H68.0621V35.632C68.0804 35.4217 68.0392 35.2105 67.9429 35.0224C67.8954 34.9606 67.8327 34.9119 67.7608 34.8811C67.6889 34.8503 67.6102 34.8383 67.5324 34.8464C67.4267 34.8448 67.3226 34.8719 67.2313 34.9248C67.1131 34.9961 67.0075 35.0864 66.919 35.192V37.0912H66.3957V34.48H66.919V34.824C67.0154 34.708 67.1345 34.6125 67.2689 34.5432C67.4033 34.4739 67.5504 34.4323 67.7014 34.4208C67.8636 34.4196 68.0229 34.464 68.1608 34.5489C68.2987 34.6339 68.4096 34.7559 68.4807 34.9008C68.582 34.7616 68.7131 34.6464 68.8645 34.5634C69.0159 34.4804 69.1839 34.4317 69.3565 34.4208C69.4767 34.4178 69.5961 34.4414 69.7061 34.4898C69.8161 34.5382 69.9139 34.6103 69.9924 34.7008C70.1729 34.9477 70.2575 35.2511 70.2307 35.5552V37.1088H69.7075V35.544C69.7203 35.3657 69.6727 35.1882 69.5722 35.04C69.526 34.9821 69.4665 34.936 69.3987 34.9057C69.331 34.8753 69.2568 34.8616 69.1826 34.8656C69.0626 34.8721 68.9456 34.9056 68.8405 34.9635C68.7354 35.0214 68.6448 35.1023 68.5756 35.2H68.5853ZM70.9246 38.4544V34.48H71.8407C72.2363 34.4564 72.6267 34.5802 72.9354 34.8272C73.0682 34.9517 73.172 35.1036 73.2396 35.2722C73.3072 35.4408 73.3369 35.622 73.3267 35.8032C73.3337 35.9812 73.3049 36.1588 73.2419 36.3256C73.1788 36.4924 73.0829 36.645 72.9596 36.7744C72.8386 36.8995 72.6926 36.9981 72.5309 37.0636C72.3692 37.1292 72.1955 37.1604 72.021 37.1552C71.8287 37.1508 71.6386 37.1135 71.4591 37.0448V38.4544H70.9246ZM71.8294 34.9648H71.4591V36.5808C71.6149 36.6607 71.7877 36.7024 71.963 36.7024C72.0755 36.7058 72.1873 36.6849 72.2908 36.6409C72.3942 36.597 72.4868 36.5311 72.5619 36.448C72.6908 36.2963 72.7719 36.1103 72.7951 35.9131C72.8182 35.7159 72.7825 35.5163 72.6923 35.3392C72.6234 35.2157 72.5184 35.1158 72.3913 35.0528C72.214 34.9843 72.0243 34.9532 71.8342 34.9616L71.8294 34.9648ZM75.1733 34.4736C75.3581 34.4675 75.5423 34.4987 75.7147 34.5652C75.887 34.6318 76.0441 34.7323 76.1763 34.8608C76.3079 34.9864 76.4115 35.138 76.4805 35.3058C76.5496 35.4736 76.5825 35.6539 76.5772 35.8352C76.5829 36.0133 76.5496 36.1906 76.4795 36.3547C76.4095 36.5188 76.3044 36.6658 76.1715 36.7856C75.8952 37.0401 75.5289 37.1758 75.1524 37.1632C74.9691 37.168 74.7866 37.1367 74.6156 37.0711C74.4445 37.0055 74.2883 36.9068 74.1558 36.7808C74.0295 36.6554 73.9294 36.5065 73.861 36.3426C73.7927 36.1787 73.7575 36.003 73.7575 35.8256C73.7575 35.6482 73.7927 35.4725 73.861 35.3086C73.9294 35.1447 74.0295 34.9958 74.1558 34.8704C74.2904 34.7425 74.4493 34.6425 74.6231 34.5763C74.797 34.5101 74.9824 34.479 75.1685 34.4848L75.1733 34.4736ZM75.1476 34.9536C75.0336 34.9481 74.9197 34.9663 74.8133 35.0071C74.7068 35.0479 74.6101 35.1103 74.5293 35.1904C74.4487 35.2734 74.3859 35.3717 74.3447 35.4795C74.3035 35.5873 74.2847 35.7023 74.2894 35.8176C74.2839 35.931 74.3025 36.0442 74.3438 36.1501C74.3851 36.2559 74.4483 36.3519 74.5293 36.432C74.6138 36.5115 74.7135 36.5734 74.8224 36.6141C74.9314 36.6547 75.0474 36.6733 75.1637 36.6688C75.2797 36.6738 75.3956 36.6553 75.5044 36.6146C75.6131 36.574 75.7124 36.5118 75.7964 36.432C75.8765 36.3503 75.9391 36.2533 75.9803 36.1469C76.0215 36.0404 76.0406 35.9268 76.0363 35.8128C76.0395 35.697 76.0181 35.5818 75.9734 35.4749C75.9287 35.3679 75.8618 35.2715 75.7771 35.192C75.6911 35.1117 75.5898 35.0494 75.4792 35.0088C75.3686 34.9681 75.2509 34.9499 75.1331 34.9552L75.1476 34.9536ZM80.4025 34.4928H80.9628L79.7859 37.16H79.6136L78.8312 35.328L78.0584 37.16H77.8845L76.7141 34.4848H77.2792L77.9682 36.0848L78.6428 34.4848H79.0324L79.7006 36.0848L80.3912 34.4848L80.4025 34.4928ZM83.4695 35.84H81.6068C81.6095 36.0667 81.7007 36.2835 81.8611 36.4448C81.9406 36.5231 82.0352 36.5847 82.1392 36.6256C82.2433 36.6666 82.3546 36.6862 82.4665 36.6832C82.8113 36.6826 83.1465 36.5702 83.4212 36.3632V36.872C83.2725 36.9708 83.1097 37.0468 82.9382 37.0976C82.7573 37.1468 82.5703 37.17 82.3828 37.1664C82.131 37.1797 81.8812 37.1167 81.6663 36.9856C81.4839 36.864 81.335 36.699 81.2333 36.5056C81.1207 36.2853 81.0654 36.0405 81.0723 35.7936C81.0579 35.4366 81.1798 35.0874 81.4136 34.816C81.5254 34.692 81.6632 34.5939 81.8173 34.5287C81.9714 34.4635 82.1381 34.4326 82.3055 34.4384C82.4644 34.432 82.6227 34.4616 82.7683 34.5251C82.9139 34.5886 83.043 34.6843 83.1459 34.8048C83.3667 35.0824 83.4777 35.4306 83.4582 35.784V35.848L83.4695 35.84ZM81.6261 35.5296H82.9592C82.9552 35.3528 82.8892 35.183 82.7724 35.0496C82.7128 34.9928 82.6423 34.9487 82.5651 34.9198C82.4879 34.891 82.4056 34.8779 82.3232 34.8816C82.1526 34.8755 81.9862 34.9358 81.8595 35.0496C81.7313 35.1807 81.6479 35.3486 81.6213 35.5296H81.6261ZM84.5997 34.488V35.0832L84.6303 35.0352C84.8847 34.6309 85.138 34.4288 85.3902 34.4288C85.6262 34.4476 85.8466 34.5531 86.0084 34.7248L85.7315 35.1824C85.6016 35.0367 85.421 34.9452 85.226 34.9264C85.1388 34.9277 85.0532 34.9501 84.9766 34.9916C84.9 35.0332 84.8348 35.0926 84.7865 35.1648C84.662 35.3286 84.5963 35.5291 84.5997 35.7344V37.12H84.0765V34.48L84.5997 34.488Z" fill="#737373"/>
<path fill-rule="evenodd" clip-rule="evenodd" d="M25.8353 35.7104L24.7293 37.6096C22.6733 40.9824 19.2956 44.6784 15.6522 46.392C15.2723 46.5712 14.9938 46.704 14.6138 46.856C14.2438 46.986 13.881 47.1356 13.5271 47.304C20.9957 45.7872 26.5276 42.4704 31.145 36.9248C34.9671 32.3248 38.9164 24.8576 38.3609 16.4112C37.8264 8.33281 33.209 2.22401 26.357 0.513614C19.0251 -1.31999 13.4917 1.95361 9.50858 7.20801C9.222 7.58401 8.33652 8.86881 8.21094 9.27041C13.6044 6.58721 20.0539 5.39841 25.4908 9.32321C30.2225 12.7408 31.6489 19.616 30.4157 25.6144C29.6993 29.096 28.2954 31.7504 26.5292 34.656C26.2822 34.9957 26.0528 35.3476 25.8418 35.7104H25.8353Z" fill="#E15A11"/>
<path fill-rule="evenodd" clip-rule="evenodd" d="M6.92297 46.9983C6.41744 47.3567 4.45005 46.7407 3.9413 46.6527C4.90728 47.3423 6.9439 47.8943 8.40737 47.9759C10.6436 48.1023 11.6273 47.7151 13.5271 47.3199C13.8828 47.1541 14.2472 47.0072 14.6186 46.8799C14.9986 46.7279 15.2771 46.5951 15.6571 46.4175C19.3053 44.6991 22.683 41.0015 24.7341 37.6335L25.8402 35.7343C25.9641 35.3551 26.2507 34.8367 26.4278 34.4287C27.8945 31.0687 28.9716 27.2655 28.6415 23.5263C28.4435 21.2863 27.8881 19.2911 26.9124 17.6575C23.7247 12.2975 17.0079 10.3135 11.2264 12.8575C8.06927 14.2383 6.07451 16.4943 4.42429 19.3135C4.18601 19.6911 4.02502 20.1439 3.8125 20.4799C4.06527 20.4367 4.81068 19.9727 5.15522 19.8111C6.65121 19.0736 8.24737 18.5567 9.89337 18.2767C14.4174 17.5391 19.1829 18.9887 21.4997 22.8607C22.5864 24.6815 22.8955 27.2911 22.6267 29.7759C22.1437 34.2031 19.9155 38.8207 17.7323 41.4367C17.1122 42.1963 16.4374 42.9101 15.7134 43.5727C14.9849 44.22 14.2035 44.806 13.3774 45.3247C11.8205 46.2751 8.68267 47.4607 6.93746 46.9871L6.92297 46.9983Z" fill="#006C35"/>
<path fill-rule="evenodd" clip-rule="evenodd" d="M3.93627 46.6528C4.44502 46.7408 6.41402 47.3664 6.91794 46.9984C6.54303 46.9034 6.19708 46.719 5.91009 46.4611C5.62309 46.2032 5.40371 45.8796 5.27094 45.5184C4.35647 43.4016 5.13087 39.5296 5.64928 37.4352C6.06466 35.76 6.51867 34.2032 7.04352 32.5888L8.6374 27.9664L2.3585 27.9808C1.97371 28.576 1.1333 31.848 0.909518 32.7904C-0.161114 37.12 -1.29937 44.6048 3.93627 46.6528Z" fill="#004D68"/>
<path fill-rule="evenodd" clip-rule="evenodd" d="M2.16211 23.848L2.62739 24.352C2.96718 24.008 3.35748 23.7173 3.78496 23.4896C4.42341 23.1661 5.1405 23.0274 5.85443 23.0893C6.56837 23.1513 7.25041 23.4114 7.82278 23.84C8.07876 24.024 8.15926 24.176 8.40559 24.32L8.88858 23.84C8.6487 23.4816 8.03047 23.04 7.52815 22.7952C6.90943 22.4959 6.23034 22.3405 5.54225 22.3405C4.85416 22.3405 4.17507 22.4959 3.55635 22.7952C3.11199 22.9968 2.39395 23.5072 2.18143 23.8464L2.16211 23.848Z" fill="#004D68"/>
<path fill-rule="evenodd" clip-rule="evenodd" d="M2.98169 24.7232L3.46468 25.256C3.94767 25 4.95069 23.848 6.65565 24.632C6.98543 24.7675 7.27755 24.9798 7.50733 25.2512L8.05955 24.64C7.38014 24.16 6.80699 23.576 5.49647 23.5856C5.01964 23.5863 4.54854 23.6889 4.11518 23.8866C3.68181 24.0843 3.29633 24.3723 2.98491 24.7312L2.98169 24.7232Z" fill="#004D68"/>
<path fill-rule="evenodd" clip-rule="evenodd" d="M3.88374 25.6287L4.39732 26.0335C4.45206 25.9967 4.48426 25.9679 4.52934 25.9375C4.8055 25.7309 5.13862 25.6131 5.48405 25.5999C6.20049 25.5839 6.347 25.8911 6.80101 26.1167L7.14715 25.6367C6.4114 24.7295 4.59052 24.6511 3.87891 25.6367L3.88374 25.6287Z" fill="#004D68"/>
<path fill-rule="evenodd" clip-rule="evenodd" d="M4.68169 26.4496L5.59615 27.36L6.35123 26.4912C5.75876 25.936 5.31924 25.984 4.67847 26.4512L4.68169 26.4496Z" fill="#004D68"/>
<path fill-rule="evenodd" clip-rule="evenodd" d="M42.463 24.96C45.7715 24.64 44.6912 28.1984 43.2341 28.9968C42.5563 29.3632 41.856 29.2592 41.0059 29.264L42.463 24.968V24.96ZM39.4121 30.3328C40.4489 30.3648 42.6771 30.4736 43.4869 30.1312C45.8471 29.1424 46.5281 25.744 45.3464 24.48C44.572 23.6496 42.6948 23.8768 41.5582 23.8624L39.4072 30.3408L39.4121 30.3328Z" fill="#737373"/>
<path fill-rule="evenodd" clip-rule="evenodd" d="M48.9918 30.8176C49.8209 30.568 50.8207 31.4448 49.6583 31.672C48.5732 31.8832 47.7231 31.2 48.9918 30.8176ZM50.3104 26.9456C51.2892 26.6256 50.9206 28.1584 50.3909 28.3856C49.8612 28.6128 49.6004 28.336 49.705 27.7872C49.792 27.3376 49.9449 27.064 50.3104 26.9456ZM49.0465 28.9232C48.6328 29.0304 48.3543 29.16 48.2126 29.4928C48.1209 29.6648 48.0985 29.865 48.1499 30.0528C48.2014 30.2406 48.3228 30.4019 48.4895 30.504C47.4011 30.9104 47.0566 31.6576 47.5541 32.1536C48.3414 32.944 51.8527 32.5984 51.257 30.5536C50.9817 29.5936 49.5344 29.9792 49.2832 29.4928C49.5231 28.9424 50.0721 29.6112 51.2281 28.8528C51.7513 28.5104 51.9928 27.8768 51.9928 26.9856H52.6126L52.8767 26.0608C51.4052 25.8736 49.2639 25.8496 48.7358 27.4256C48.6375 27.7067 48.6153 28.0085 48.6714 28.3008C48.6891 28.4167 48.735 28.5266 48.8051 28.6208L49.0449 28.9408L49.0465 28.9232Z" fill="#737373"/>
<path fill-rule="evenodd" clip-rule="evenodd" d="M76.8184 29.3344C75.0329 29.7216 75.3517 26.9984 77.588 27.0944C77.4833 27.52 77.0116 29.0656 76.8184 29.3344ZM77.9792 25.9744C76.3434 26.08 75.0345 26.312 74.5515 28.2064C73.9832 30.4464 75.9619 30.5808 77.6974 30.2864L79.829 23.8608H78.6795L77.9792 25.9776V25.9744Z" fill="#737373"/>
<path fill-rule="evenodd" clip-rule="evenodd" d="M61.0563 27.04C60.9147 27.5984 60.6925 28.16 60.5138 28.728C60.3802 29.1488 60.3673 29.1712 60.0002 29.3312C58.672 29.9104 58.9795 28.3984 59.5027 27.7232C59.8537 27.2704 60.2015 26.9728 61.0563 27.04ZM60.0147 30.0144C60.0322 30.0491 60.0405 30.0876 60.0388 30.1264C60.0388 30.1712 60.0244 30.2592 60.0211 30.352H61.103L62.5375 26.0928C61.5281 25.9456 60.7666 25.856 59.8376 26.2096C57.1312 27.232 57.186 31.8384 60.0066 30.0192L60.0147 30.0144Z" fill="#737373"/>
<path fill-rule="evenodd" clip-rule="evenodd" d="M84.5076 27.04C84.3933 27.5712 84.1357 28.1952 83.9683 28.7312C83.7107 29.5632 82.8413 29.5456 82.6497 29.3392C82.2585 28.904 82.7431 26.92 84.5076 27.04ZM83.466 30.016L83.4789 30.3536H84.5511L85.984 26.1184C84.0987 25.5872 82.4324 26.3552 81.7594 27.512C80.8031 29.1584 81.4262 31.3904 83.4596 30.0208L83.466 30.016Z" fill="#737373"/>
<path fill-rule="evenodd" clip-rule="evenodd" d="M69.3594 30.3359H70.496L71.235 28.1599C71.2656 28.0671 71.2897 27.9903 71.3107 27.9215C71.4185 27.5615 71.3847 27.5455 71.7615 27.2719C72.7774 26.5407 72.9271 26.9919 72.7001 27.7519L71.9031 30.3631H72.9754L73.9188 27.6047C73.9459 27.522 73.9675 27.4375 73.9832 27.3519C74.1152 26.7455 74.0508 26.1103 73.4632 25.9951C72.7918 25.8639 72.2477 26.2319 71.813 26.4751L71.9241 26.0607L70.7971 26.0383L69.3642 30.3503L69.3594 30.3359Z" fill="#737373"/>
<path fill-rule="evenodd" clip-rule="evenodd" d="M56.0469 26.0208H55.2644L54.915 26.9696H55.6749C55.5461 27.6608 53.4677 31.3616 56.9533 30.1536L57.1674 29.0448C56.9548 29.1421 56.7309 29.2131 56.5009 29.256C55.7377 29.192 56.686 27.4 56.8309 26.9888L57.7132 26.9712L58.0223 26.0224H57.206L57.5184 25.1328L56.3576 25.1088L56.0469 26.0128V26.0208Z" fill="#737373"/>
<path fill-rule="evenodd" clip-rule="evenodd" d="M66.9092 30.3233L68.1167 30.3457L70.303 23.8625L69.0682 23.8593L66.9092 30.3233Z" fill="#737373"/>
<path fill-rule="evenodd" clip-rule="evenodd" d="M62.2041 30.3265L63.3343 30.3473L65.5078 23.8593H64.3566L62.2041 30.3265Z" fill="#737373"/>
<path fill-rule="evenodd" clip-rule="evenodd" d="M45.7373 30.3808H46.8917L48.2746 26.0128H47.1203L45.7373 30.3808ZM48.265 24.2368C48.587 24.2368 48.7705 24.536 48.6868 24.904C48.6535 25.0761 48.5663 25.2334 48.4376 25.3532C48.3089 25.4731 48.1453 25.5494 47.9703 25.5712C47.6483 25.5712 47.4616 25.272 47.5453 24.904C47.5798 24.7302 47.669 24.5719 47.8002 24.4519C47.9313 24.3319 48.0975 24.2566 48.2746 24.2368H48.265Z" fill="#737373"/>
<path fill-rule="evenodd" clip-rule="evenodd" d="M52.0908 30.3808H53.2452L54.6281 26.0128H53.4754L52.0908 30.3808ZM54.6185 24.2368C54.9405 24.2368 55.1272 24.536 55.0419 24.904C55.0086 25.0761 54.9214 25.2334 54.7927 25.3532C54.664 25.4731 54.5005 25.5494 54.3255 25.5712C54.0035 25.5712 53.8167 25.272 53.9004 24.904C53.9344 24.7322 54.0219 24.5754 54.1504 24.4556C54.279 24.3359 54.4421 24.2594 54.6169 24.2368H54.6185Z" fill="#737373"/>
<path fill-rule="evenodd" clip-rule="evenodd" d="M78.6682 30.3808H79.821L81.2039 26.0128H80.0512L78.6682 30.3808ZM81.1943 24.2368C81.5163 24.2368 81.7014 24.536 81.6177 24.904C81.5835 25.0779 81.4943 25.2364 81.3631 25.3564C81.2319 25.4764 81.0656 25.5517 80.8884 25.5712C80.5664 25.5712 80.3828 25.272 80.4666 24.904C80.5009 24.7305 80.59 24.5723 80.7208 24.4523C80.8516 24.3324 81.0174 24.2569 81.1943 24.2368Z" fill="#737373"/>
<path fill-rule="evenodd" clip-rule="evenodd" d="M85.5044 31.0192H52.0508V31.4544H85.5044V31.0192Z" fill="#737373"/>
<path fill-rule="evenodd" clip-rule="evenodd" d="M46.0131 31.0192H39.1836V31.4544H46.0131V31.0192Z" fill="#737373"/>
</g>
<defs>
<clipPath id="clip0_12534_1645">
<rect width="86" height="48" fill="white"/>
</clipPath>
</defs>
</svg>
