<svg width="114" height="48" viewBox="0 0 114 48" fill="none" xmlns="http://www.w3.org/2000/svg">
<path d="M40.7753 0H10.8247C4.84637 0 0 4.84637 0 10.8247V37.1753C0 43.1536 4.84637 48 10.8247 48H40.7753C46.7536 48 51.6 43.1536 51.6 37.1753V10.8247C51.6 4.84637 46.7536 0 40.7753 0Z" fill="#E5E5E5"/>
<path d="M37.4521 18.2269C37.4963 18.7032 37.5257 19.1825 37.5257 19.67C37.5257 28.4242 30.4034 35.5464 21.6493 35.5464C21.1617 35.5464 20.6825 35.517 20.2062 35.4728V41.3194H43.2987V18.2269H37.4521Z" fill="#D1604E"/>
<path d="M17.3194 15.3402H33.8834C32.099 10.2985 27.3028 6.68042 21.6493 6.68042C14.4751 6.68042 8.65967 12.4958 8.65967 19.67C8.65967 25.3236 12.2778 30.1198 17.3194 31.904V15.3402Z" fill="#3271EA"/>
<path d="M20.2062 32.5739C20.6798 32.6258 21.1617 32.6584 21.6493 32.6584C28.8235 32.6584 34.6389 26.8442 34.6389 19.67C34.6389 19.1825 34.6064 18.7019 34.5545 18.2269H20.2062V32.5739Z" fill="#012C6F"/>
<path d="M56.4 30.3657V12.259H59.6801V27.6162H67.6548V30.3657H56.4ZM76.2838 30.6309C74.9577 30.6309 73.8083 30.3392 72.8357 29.7556C71.8632 29.1722 71.1088 28.3558 70.5724 27.3067C70.0419 26.2575 69.7767 25.0316 69.7767 23.6288C69.7767 22.226 70.0419 20.997 70.5724 19.9419C71.1088 18.8869 71.8632 18.0676 72.8357 17.4841C73.8083 16.9006 74.9577 16.6088 76.2838 16.6088C77.61 16.6088 78.7593 16.9006 79.7319 17.4841C80.7043 18.0676 81.4559 18.8869 81.9863 19.9419C82.5227 20.997 82.7909 22.226 82.7909 23.6288C82.7909 25.0316 82.5227 26.2575 81.9863 27.3067C81.4559 28.3558 80.7043 29.1722 79.7319 29.7556C78.7593 30.3392 77.61 30.6309 76.2838 30.6309ZM76.3014 28.067C77.0206 28.067 77.6218 27.8696 78.105 27.4747C78.5884 27.0739 78.9479 26.5375 79.1837 25.8656C79.4254 25.1936 79.5462 24.445 79.5462 23.6199C79.5462 22.7888 79.4254 22.0374 79.1837 21.3654C78.9479 20.6876 78.5884 20.1483 78.105 19.7475C77.6218 19.3467 77.0206 19.1463 76.3014 19.1463C75.5647 19.1463 74.9517 19.3467 74.4625 19.7475C73.9792 20.1483 73.6167 20.6876 73.375 21.3654C73.1393 22.0374 73.0213 22.7888 73.0213 23.6199C73.0213 24.445 73.1393 25.1936 73.375 25.8656C73.6167 26.5375 73.9792 27.0739 74.4625 27.4747C74.9517 27.8696 75.5647 28.067 76.3014 28.067ZM91.4133 35.7411C90.2639 35.7411 89.2767 35.585 88.4514 35.2725C87.6263 34.966 86.9632 34.5535 86.4622 34.0348C85.9612 33.5161 85.6134 32.9414 85.4189 32.3108L88.3012 31.6123C88.4308 31.8776 88.6194 32.1398 88.867 32.3992C89.1145 32.6644 89.4475 32.8825 89.8661 33.0535C90.2904 33.2302 90.8238 33.3187 91.4663 33.3187C92.374 33.3187 93.1255 33.0976 93.7207 32.6556C94.3161 32.2195 94.6138 31.5003 94.6138 30.4983V27.9255H94.4547C94.2895 28.2556 94.0479 28.5945 93.7296 28.9423C93.4173 29.29 93.0017 29.5818 92.4831 29.8176C91.9703 30.0534 91.3248 30.1712 90.5469 30.1712C89.5036 30.1712 88.5575 29.9266 87.7087 29.4374C86.866 28.9423 86.194 28.2055 85.693 27.2271C85.1979 26.2428 84.9503 25.011 84.9503 23.5315C84.9503 22.0402 85.1979 20.7819 85.693 19.7563C86.194 18.7249 86.8689 17.9439 87.7176 17.4134C88.5664 16.877 89.5123 16.6088 90.5556 16.6088C91.3513 16.6088 92.0056 16.7444 92.5183 17.0156C93.0371 17.2808 93.4497 17.602 93.7561 17.9792C94.0626 18.3506 94.2954 18.7012 94.4547 19.0314H94.6314V16.7857H97.7878V30.5868C97.7878 31.7479 97.5107 32.7086 96.9567 33.4689C96.4026 34.2294 95.6452 34.798 94.6845 35.1753C93.7237 35.5526 92.6333 35.7411 91.4133 35.7411ZM91.4398 27.6603C92.1175 27.6603 92.6952 27.4953 93.1727 27.1652C93.6501 26.8352 94.0126 26.3607 94.2601 25.7418C94.5077 25.1229 94.6314 24.3802 94.6314 23.5138C94.6314 22.6592 94.5077 21.9106 94.2601 21.2682C94.0185 20.6257 93.6589 20.1277 93.1815 19.774C92.71 19.4144 92.1294 19.2346 91.4398 19.2346C90.7266 19.2346 90.1313 19.4204 89.6538 19.7917C89.1765 20.163 88.8169 20.6728 88.5753 21.3212C88.3336 21.9637 88.2127 22.6945 88.2127 23.5138C88.2127 24.3448 88.3336 25.0728 88.5753 25.6976C88.8228 26.3164 89.1852 26.7998 89.6627 27.1476C90.1461 27.4894 90.7384 27.6603 91.4398 27.6603ZM106.991 30.6309C105.665 30.6309 104.516 30.3392 103.543 29.7556C102.571 29.1722 101.816 28.3558 101.28 27.3067C100.75 26.2575 100.484 25.0316 100.484 23.6288C100.484 22.226 100.75 20.997 101.28 19.9419C101.816 18.8869 102.571 18.0676 103.543 17.4841C104.516 16.9006 105.665 16.6088 106.991 16.6088C108.318 16.6088 109.467 16.9006 110.44 17.4841C111.412 18.0676 112.164 18.8869 112.694 19.9419C113.23 20.997 113.499 22.226 113.499 23.6288C113.499 25.0316 113.23 26.2575 112.694 27.3067C112.164 28.3558 111.412 29.1722 110.44 29.7556C109.467 30.3392 108.318 30.6309 106.991 30.6309ZM107.009 28.067C107.728 28.067 108.329 27.8696 108.813 27.4747C109.296 27.0739 109.656 26.5375 109.891 25.8656C110.133 25.1936 110.254 24.445 110.254 23.6199C110.254 22.7888 110.133 22.0374 109.891 21.3654C109.656 20.6876 109.296 20.1483 108.813 19.7475C108.329 19.3467 107.728 19.1463 107.009 19.1463C106.272 19.1463 105.659 19.3467 105.17 19.7475C104.687 20.1483 104.324 20.6876 104.083 21.3654C103.847 22.0374 103.729 22.7888 103.729 23.6199C103.729 24.445 103.847 25.1936 104.083 25.8656C104.324 26.5375 104.687 27.0739 105.17 27.4747C105.659 27.8696 106.272 28.067 107.009 28.067Z" fill="#001F2D"/>
</svg>
