<svg width="75" height="29" viewBox="0 0 75 29" fill="none" xmlns="http://www.w3.org/2000/svg">
<path fill-rule="evenodd" clip-rule="evenodd" d="M1.62053 14.6201L1.32031 14.3092C1.59431 14.0234 1.92099 13.7964 2.28132 13.6415C2.64164 13.4865 3.02841 13.4067 3.41909 13.4067C3.80976 13.4067 4.19653 13.4865 4.55685 13.6415C4.91718 13.7964 5.24386 14.0234 5.51786 14.3092L5.21213 14.6088C4.97781 14.3661 4.69896 14.1734 4.39167 14.0419C4.08439 13.9104 3.75476 13.8427 3.42184 13.8427C3.08891 13.8427 2.75929 13.9104 2.45201 14.0419C2.14472 14.1734 1.86587 14.3661 1.63155 14.6088M2.6892 15.649L2.41377 15.3663C2.54754 15.2248 2.70765 15.1123 2.88459 15.0354C3.06154 14.9585 3.25173 14.9189 3.44387 14.9189C3.63602 14.9189 3.8262 14.9585 4.00315 15.0354C4.1801 15.1123 4.34021 15.2248 4.47398 15.3663L4.19855 15.649C3.99951 15.4476 3.73166 15.334 3.45214 15.3324C3.31342 15.3314 3.17591 15.3588 3.04771 15.4132C2.91951 15.4676 2.80323 15.5478 2.70572 15.649M3.45214 16.4066L2.9178 15.8695C3.06277 15.7285 3.25258 15.6462 3.45214 15.6377C3.65051 15.6441 3.83929 15.7268 3.98096 15.8695L3.45214 16.4066ZM3.45214 14.6088C3.68482 14.6068 3.91541 14.654 4.12958 14.7473C4.34375 14.8407 4.53692 14.9783 4.69708 15.1515L5.03035 14.8095C4.82488 14.5915 4.57879 14.4182 4.30672 14.2998C4.03464 14.1814 3.74215 14.1204 3.44663 14.1204C3.15111 14.1204 2.85861 14.1814 2.58654 14.2998C2.31446 14.4182 2.06837 14.5915 1.86291 14.8095L2.19342 15.1543C2.35562 14.9805 2.55066 14.8425 2.76661 14.7487C2.98256 14.6549 3.21489 14.6073 3.44938 14.6088" fill="#0E6EB6"/>
<path fill-rule="evenodd" clip-rule="evenodd" d="M1.43693 16.7798H5.3618C2.54691 24.0868 2.05665 28.3692 4.91285 28.2561C-1.35317 28.6349 -0.54065 22.3879 1.43969 16.7798" fill="#0E6EB6"/>
<path fill-rule="evenodd" clip-rule="evenodd" d="M5.04688 5.57191C8.62746 -0.414997 14.4335 -1.02556 18.5705 1.15381C23.1591 3.57627 24.5748 9.18158 23.4318 14.117C22.4265 18.6057 19.5455 22.7072 15.8217 25.3445C13.5423 26.9314 10.9525 27.9878 8.23359 28.4398C10.3181 27.742 12.1836 26.4862 13.6375 24.8018C14.5399 23.7962 15.3213 22.683 15.9649 21.4861C18.0774 18.5633 19.0552 15.6999 19.1241 13.2068C19.2618 9.86281 17.8433 6.54429 14.8494 5.0094C12.2438 3.64977 8.73488 3.72044 5.04688 5.57474" fill="#F26329"/>
<path fill-rule="evenodd" clip-rule="evenodd" d="M2.33893 12.3248C5.25849 6.38876 11.2711 5.97323 14.8131 8.54269C16.2091 9.5593 17.1899 11.0693 17.5674 12.7827C18.0494 14.9649 17.6969 17.2262 16.8981 19.383C16.1635 21.3897 15.0549 23.2302 13.6343 24.8017C11.6182 27.0885 8.73165 28.8326 5.64684 28.7987C4.414 28.8054 3.20239 28.4693 2.14062 27.8263C3.59765 28.5471 5.86443 28.2927 7.24984 27.7245C9.54141 26.7606 11.3813 24.7622 12.5298 22.5517C13.9483 19.8438 15.0665 15.485 12.8053 12.9891C10.7533 10.6712 6.66042 9.87971 2.33893 12.322" fill="#09A14A"/>
<path d="M70.9238 15.7251L71.6179 13.6815C71.5353 13.6815 71.4471 13.6815 71.3728 13.6815C71.1569 13.6725 70.9416 13.7093 70.7402 13.7896C70.5388 13.8698 70.3556 13.9918 70.2022 14.1479C69.8948 14.4591 69.6856 14.8579 69.6018 15.2927C69.5412 15.4898 69.548 15.7022 69.621 15.8947C69.6562 15.9659 69.711 16.0248 69.7786 16.064C69.8462 16.1032 69.9237 16.121 70.0011 16.1152C70.3405 16.0933 70.6645 15.9617 70.9266 15.7393M73.13 12.7741L71.6757 16.9632H70.4942L70.6291 16.5647C70.2738 16.8558 69.8383 17.0249 69.3842 17.048C69.2043 17.056 69.0259 17.0117 68.8694 16.9202C68.713 16.8287 68.585 16.6937 68.5 16.5308C68.2987 16.1209 68.2583 15.6474 68.3871 15.2079C68.5359 14.4632 68.943 13.7992 69.5329 13.3394C70.1865 12.8324 70.9922 12.5754 71.8107 12.613C72.2499 12.6082 72.6881 12.6566 73.1162 12.7571M68.3017 12.7034L66.8282 16.9632H65.6466L67.1257 12.7034H68.3017ZM67.4975 11.5106C67.5314 11.3321 67.623 11.1705 67.7574 11.052C67.8919 10.9335 68.0613 10.8651 68.2384 10.8576C68.3139 10.8555 68.3888 10.8715 68.4572 10.9044C68.5256 10.9373 68.5855 10.9861 68.6323 11.047C68.6802 11.1123 68.7127 11.1883 68.727 11.2687C68.7414 11.3492 68.7372 11.432 68.7149 11.5106C68.6752 11.6959 68.5787 11.8634 68.4395 11.9883C68.3045 12.1029 68.1354 12.1667 67.9602 12.1692C67.8863 12.1712 67.813 12.156 67.7457 12.1246C67.6784 12.0933 67.619 12.0467 67.5718 11.9883C67.5267 11.9188 67.4971 11.8399 67.4852 11.7573C67.4733 11.6747 67.4794 11.5905 67.503 11.5106M63.7985 15.9598L64.5559 13.7465C64.4585 13.7303 64.3599 13.7227 64.2612 13.7239C63.8734 13.7155 63.4948 13.8454 63.1898 14.0913C62.8997 14.3191 62.6969 14.6443 62.6169 15.01C62.5818 15.1335 62.5752 15.2637 62.5977 15.3903C62.6201 15.5169 62.671 15.6364 62.7463 15.7393C62.8375 15.8384 62.9491 15.9153 63.0731 15.9642C63.197 16.0131 63.3301 16.0329 63.4624 16.0219C63.5757 16.0154 63.6882 15.9984 63.7985 15.9711M66.8282 10.5523L64.6495 16.9152C64.1906 17.0026 63.7253 17.0508 63.2586 17.0593C62.5508 17.0593 62.0302 16.8728 61.6942 16.494C61.3582 16.1152 61.2645 15.6262 61.3995 15.0043C61.5387 14.3341 61.901 13.7344 62.4241 13.3083C62.964 12.8455 63.6487 12.5986 64.3521 12.613C64.5419 12.6162 64.7314 12.6313 64.9195 12.6582L65.6438 10.541L66.8282 10.5523ZM58.7636 12.7034L58.5846 13.1811C59.01 12.8445 59.5246 12.6475 60.0609 12.6158C60.1985 12.6025 60.337 12.6278 60.4617 12.6891C60.5864 12.7503 60.6925 12.8452 60.7687 12.9635C60.8417 13.112 60.8853 13.2739 60.8971 13.4398C60.9089 13.6057 60.8887 13.7723 60.8376 13.9302C60.8117 14.0595 60.7776 14.187 60.7357 14.3118L59.8295 16.9661H58.6534L59.5266 14.422C59.5588 14.3507 59.5829 14.2758 59.5982 14.1987C59.6808 13.7776 59.5982 13.5712 59.3585 13.5712C59.1189 13.5712 58.703 13.7832 58.232 14.227L57.2873 16.9717H56.1057L57.582 12.7034H58.7636ZM57.0835 10.5523L54.8801 16.9745H53.6076L55.811 10.5523H57.0835ZM52.1809 10.5523L49.9774 16.9745H48.8068L51.0103 10.5523H52.1809ZM46.9477 15.7365L47.6363 13.6928C47.5536 13.6928 47.4655 13.6928 47.3911 13.6928C47.1761 13.6839 46.9616 13.7208 46.7611 13.8011C46.5606 13.8813 46.3785 14.0032 46.2261 14.1592C45.9212 14.463 45.7104 14.8523 45.6201 15.2785C45.5563 15.4756 45.5651 15.6898 45.6449 15.8806C45.6788 15.9515 45.7326 16.0104 45.7993 16.0497C45.8661 16.089 45.9427 16.1069 46.0195 16.1011C46.3592 16.0769 46.6834 15.9456 46.9477 15.7251M49.1511 12.76L47.7051 16.9632H46.529L46.6668 16.5647C46.311 16.8531 45.8772 17.0219 45.4246 17.048C45.2415 17.0593 45.0592 17.0169 44.8987 16.9258C44.7383 16.8347 44.6064 16.6987 44.5184 16.5336C44.3214 16.1225 44.2811 15.6507 44.4055 15.2107C44.5533 14.4656 44.9606 13.8013 45.5513 13.3423C46.2069 12.835 47.0143 12.5781 47.8346 12.6158C48.2728 12.6115 48.7101 12.6598 49.1374 12.76M44.0199 11.7932L43.6728 12.7034H44.5404L44.1851 13.6362H43.312L42.7942 15.027C42.7489 15.1319 42.7156 15.242 42.6951 15.3549C42.6097 15.7365 42.6951 15.9202 42.9347 15.9202C43.1915 15.8822 43.4392 15.7949 43.6646 15.663L43.4249 16.7936C43.0936 16.9683 42.7286 17.0648 42.3563 17.0763C42.1974 17.0878 42.0383 17.0578 41.8938 16.9891C41.7493 16.9204 41.6241 16.8152 41.53 16.6834C41.4452 16.5283 41.3915 16.3574 41.3721 16.1807C41.3527 16.0039 41.368 15.825 41.4171 15.6545C41.4529 15.5329 41.4887 15.4086 41.53 15.2842L42.1607 13.6532H41.362L41.709 12.7204H42.5133L42.8465 11.8187L44.0199 11.7932ZM41.1416 12.7034L39.6708 16.9632H38.4948L39.96 12.7034H41.1416ZM40.3291 11.5106C40.3699 11.3296 40.4665 11.167 40.6045 11.047C40.7376 10.9297 40.9058 10.8629 41.081 10.8576C41.157 10.8551 41.2325 10.8709 41.3014 10.9038C41.3702 10.9367 41.4306 10.9857 41.4777 11.047C41.5222 11.1141 41.5525 11.19 41.5667 11.2698C41.5809 11.3497 41.5788 11.4317 41.5603 11.5106C41.5163 11.6941 41.4205 11.8603 41.2849 11.9883C41.1495 12.1004 40.9822 12.1639 40.8084 12.1692C40.7343 12.173 40.6604 12.1585 40.5928 12.1271C40.5253 12.0956 40.466 12.048 40.42 11.9883C40.3726 11.9199 40.3405 11.8416 40.3262 11.759C40.3119 11.6764 40.3157 11.5915 40.3374 11.5106M36.4951 17.9073C36.5337 17.7095 36.3767 17.5625 36.0297 17.4862L35.5366 17.3646C35.3745 17.3746 35.2157 17.4159 35.0684 17.4862C34.9799 17.5108 34.8993 17.5591 34.835 17.6261C34.7706 17.6932 34.7248 17.7766 34.7021 17.8678C34.6415 18.1674 34.9004 18.3116 35.4843 18.3116C35.7292 18.322 35.974 18.2905 36.2087 18.2183C36.2771 18.1957 36.3386 18.1551 36.3869 18.1006C36.4352 18.046 36.4688 17.9794 36.4841 17.9073M36.4345 15.0807C36.8615 15.0807 37.1369 14.7697 37.2608 14.1592C37.2828 14.0858 37.29 14.0086 37.2819 13.9323C37.2739 13.856 37.2508 13.7822 37.214 13.7154C37.1705 13.6588 37.114 13.6143 37.0496 13.5857C36.9852 13.557 36.9149 13.5453 36.8449 13.5514C36.4153 13.5514 36.1316 13.8595 35.9884 14.4899C35.9085 14.8771 36.0489 15.0807 36.4235 15.0807M39.2852 12.7034L38.9713 13.6362H38.3405C38.3837 13.8621 38.3837 14.0944 38.3405 14.3203C38.2446 14.7603 38.0021 15.1522 37.6547 15.4283C37.2823 15.7288 36.82 15.8877 36.3464 15.8778C36.162 15.8726 35.9775 15.8858 35.7956 15.9174C35.7461 15.9222 35.6996 15.9437 35.6633 15.9785C35.6269 16.0132 35.6027 16.0593 35.5945 16.1096C35.5807 16.1605 35.5945 16.2057 35.6716 16.2622C35.942 16.3445 36.2183 16.405 36.4979 16.4431C36.9854 16.5308 37.3242 16.6721 37.4839 16.901C37.5719 17.0205 37.6316 17.1593 37.6583 17.3064C37.6851 17.4536 37.6782 17.6051 37.6382 17.7491C37.4426 18.6705 36.6604 19.1398 35.2943 19.1398C34.8276 19.1756 34.3604 19.0777 33.9447 18.8571C33.8135 18.7823 33.7105 18.6645 33.652 18.5226C33.5936 18.3807 33.5832 18.2228 33.6224 18.0741C33.7133 17.6671 34.1044 17.3364 34.804 17.1215C34.6612 17.0545 34.5454 16.9387 34.4766 16.7938C34.4078 16.6489 34.3901 16.484 34.4267 16.3272C34.5121 15.9315 34.8343 15.6686 35.3934 15.5414C35.2047 15.4085 35.0618 15.2176 34.9851 14.9963C34.9084 14.7749 34.9019 14.5344 34.9665 14.309C35.0753 13.854 35.3378 13.4533 35.7074 13.1783C36.0965 12.8583 36.5834 12.6901 37.0818 12.7034H39.2852ZM34.6029 12.7034L33.1322 16.9745H31.9561L33.4076 12.7034H34.6029ZM33.7767 11.5106C33.8178 11.3298 33.9143 11.1673 34.0521 11.047C34.184 10.9315 34.3498 10.8648 34.5231 10.8576C34.5988 10.8564 34.6739 10.8728 34.7426 10.9056C34.8113 10.9384 34.8718 10.9867 34.9197 11.047C34.9661 11.1131 34.9969 11.1894 35.0098 11.2698C35.0227 11.3503 35.0173 11.4326 34.9941 11.5106C34.9506 11.6944 34.8547 11.8607 34.7186 11.9883C34.5828 12.1033 34.4127 12.1671 34.2366 12.1692C34.1631 12.1718 34.0899 12.1569 34.023 12.1255C33.9561 12.0941 33.8972 12.0471 33.851 11.9883C33.8066 11.9185 33.7764 11.8402 33.7622 11.7581C33.748 11.676 33.7501 11.5918 33.7684 11.5106M28.5821 11.6208L27.1278 15.9004H28.3121C28.6069 15.9057 28.8997 15.8507 29.1735 15.7386C29.4473 15.6264 29.6966 15.4595 29.9069 15.2474C30.3551 14.8209 30.6606 14.26 30.78 13.6447C30.8509 13.3972 30.8672 13.1366 30.8277 12.8819C30.7881 12.6271 30.6937 12.3846 30.5514 12.172C30.3864 11.9745 30.1779 11.8201 29.9432 11.7218C29.7085 11.6235 29.4543 11.584 29.2018 11.6067L28.5821 11.6208ZM27.6924 10.5523H29.67C30.6671 10.5523 31.3666 10.835 31.7715 11.4229C32.1764 12.0109 32.2756 12.76 32.0828 13.6843C31.9005 14.5929 31.4413 15.4185 30.7717 16.0417C30.184 16.6366 29.3937 16.9731 28.5683 16.9802H25.5L27.6924 10.5523Z" fill="#171717"/>
<path fill-rule="evenodd" clip-rule="evenodd" d="M25.9959 21.3532H26.6762C26.8994 21.3607 27.1183 21.2888 27.2959 21.1497C27.3692 21.084 27.4269 21.002 27.4646 20.9099C27.5024 20.8178 27.5191 20.718 27.5135 20.6183C27.5189 20.5173 27.5022 20.4164 27.4645 20.323C27.4268 20.2295 27.3692 20.1459 27.2959 20.0784C27.1196 19.9377 26.8991 19.8683 26.6762 19.8834H25.9959V21.3532ZM25.9959 21.7405V23.3743H25.5938V19.4876H26.5881C26.9397 19.4687 27.2878 19.5679 27.5796 19.7703C27.7013 19.8722 27.7978 20.0021 27.8615 20.1494C27.9251 20.2967 27.954 20.4574 27.9459 20.6183C27.9521 20.7757 27.9221 20.9324 27.8585 21.0758C27.7949 21.2191 27.6993 21.3451 27.5796 21.4437C27.2916 21.6558 26.9421 21.7614 26.5881 21.7433L25.9959 21.7405Z" fill="#171717"/>
<path fill-rule="evenodd" clip-rule="evenodd" d="M29.5639 22.9986C29.6872 23.0016 29.8098 22.9779 29.9236 22.9293C30.0375 22.8806 30.1401 22.8079 30.2249 22.7159C30.3146 22.6207 30.3851 22.5083 30.4323 22.3851C30.4796 22.2619 30.5027 22.1303 30.5003 21.9979C30.504 21.8658 30.4816 21.7343 30.4342 21.6113C30.3869 21.4884 30.3156 21.3766 30.2249 21.2828C30.1426 21.1861 30.0409 21.1088 29.9268 21.0562C29.8128 21.0035 29.689 20.9767 29.5639 20.9775C29.4373 20.9746 29.3116 21.0005 29.1959 21.0533C29.0802 21.1061 28.9773 21.1844 28.8946 21.2828C28.8042 21.3769 28.7333 21.4887 28.6859 21.6116C28.6386 21.7345 28.6159 21.8659 28.6191 21.9979C28.615 22.2652 28.714 22.5233 28.8946 22.7159C28.9798 22.8095 29.0838 22.8833 29.1992 22.932C29.3147 22.9808 29.4391 23.0035 29.5639 22.9986ZM29.5639 23.383C29.3866 23.3905 29.2097 23.3594 29.045 23.2917C28.8802 23.224 28.7313 23.1212 28.6081 22.9901C28.365 22.7138 28.2305 22.3547 28.2305 21.9824C28.2305 21.6101 28.365 21.251 28.6081 20.9747C28.863 20.7183 29.2056 20.5747 29.5625 20.5747C29.9194 20.5747 30.262 20.7183 30.5169 20.9747C30.7571 21.2524 30.8898 21.611 30.8898 21.9824C30.8898 22.3538 30.7571 22.7123 30.5169 22.9901C30.3944 23.1206 30.2464 23.223 30.0826 23.2908C29.9189 23.3585 29.743 23.3899 29.5666 23.383" fill="#171717"/>
<path fill-rule="evenodd" clip-rule="evenodd" d="M32.4766 22.6788L33.2203 20.5249H33.4654L34.2228 22.676L35.0161 20.5645H35.3851L34.322 23.377H34.0796L33.336 21.2683L32.584 23.377H32.3444L31.2812 20.5645H31.6889L32.4766 22.6788Z" fill="#171717"/>
<path fill-rule="evenodd" clip-rule="evenodd" d="M37.6316 21.6416C37.6075 21.4937 37.5468 21.3545 37.4554 21.2374C37.385 21.1496 37.2955 21.08 37.194 21.0344C37.0926 20.9887 36.9821 20.9682 36.8715 20.9745C36.7653 20.9783 36.6611 21.0056 36.5661 21.0543C36.471 21.1031 36.3873 21.1723 36.3206 21.2572C36.2361 21.3742 36.1718 21.5052 36.1306 21.6444L37.6316 21.6416ZM36.0755 21.9752C36.0747 22.1069 36.0999 22.2374 36.1496 22.3589C36.1993 22.4803 36.2725 22.5902 36.3647 22.6818C36.4541 22.7789 36.5622 22.8556 36.6822 22.9072C36.8022 22.9588 36.9314 22.9841 37.0615 22.9815C37.2212 22.9819 37.3798 22.9532 37.5297 22.8967C37.6888 22.8314 37.8374 22.7418 37.9704 22.631L38.0586 22.5546V22.9899H38.031C37.8942 23.1113 37.7375 23.207 37.5683 23.2726C37.3161 23.3646 37.0445 23.3853 36.7819 23.3326C36.5193 23.2799 36.2753 23.1557 36.0755 22.973C35.9481 22.8415 35.8484 22.6846 35.7826 22.512C35.7167 22.3394 35.6861 22.1548 35.6926 21.9695C35.678 21.602 35.7957 21.2418 36.0231 20.9576C36.1267 20.8299 36.257 20.728 36.4044 20.6595C36.5518 20.5909 36.7124 20.5576 36.8742 20.5618C37.0383 20.5524 37.2024 20.5807 37.3544 20.6448C37.5064 20.7089 37.6426 20.8071 37.7528 20.9321C37.9592 21.2057 38.0663 21.5445 38.0558 21.8904V21.9469L36.0755 21.9752Z" fill="#171717"/>
<path fill-rule="evenodd" clip-rule="evenodd" d="M39.2852 20.9742C39.3373 20.8748 39.4082 20.787 39.4938 20.7161C39.5794 20.6451 39.678 20.5925 39.7836 20.5611C39.8893 20.5298 40.0001 20.5204 40.1093 20.5336C40.2186 20.5468 40.3242 20.5822 40.42 20.6379C40.4256 20.6382 40.4309 20.6402 40.4354 20.6438C40.4398 20.6473 40.4431 20.6521 40.4448 20.6576V21.0986C40.42 21.0845 40.4447 21.0986 40.4117 21.0986C39.7892 20.7424 39.4091 21.2541 39.2852 21.6018V23.3712H38.9023V20.5446H39.2852V20.9742Z" fill="#171717"/>
<path fill-rule="evenodd" clip-rule="evenodd" d="M43.242 19.8947H42.0273V19.5386H44.8643V19.8947H43.6496V23.3348H43.242V19.8947Z" fill="#171717"/>
<path fill-rule="evenodd" clip-rule="evenodd" d="M49.8541 19.9543V21.1952H51.391V21.5627H49.8541V22.9506H51.6774V23.3209H49.4492V19.584H51.6058V19.9543H49.8541Z" fill="#171717"/>
<path fill-rule="evenodd" clip-rule="evenodd" d="M52.7801 20.9206C52.8719 20.8034 52.988 20.7088 53.12 20.6438C53.2521 20.5787 53.3966 20.5448 53.5431 20.5446C53.6767 20.5395 53.8099 20.5635 53.9339 20.6152C54.0578 20.6668 54.1696 20.7449 54.2619 20.8442C54.3224 20.9112 54.3751 20.9852 54.4189 21.0647L54.474 20.9714C54.5683 20.8406 54.6906 20.7339 54.8314 20.6594C54.9723 20.5848 55.1281 20.5446 55.2865 20.5418C55.4202 20.5363 55.5536 20.5602 55.6775 20.6119C55.8015 20.6635 55.9133 20.7418 56.0054 20.8414C56.099 20.9436 56.1717 21.0641 56.219 21.1957C56.2663 21.3273 56.2873 21.4673 56.2808 21.6074V23.2808H55.8815V21.6244C55.8904 21.4389 55.8281 21.2573 55.7079 21.1184C55.6506 21.0525 55.5794 21.001 55.4997 20.9676C55.4199 20.9343 55.3339 20.9202 55.248 20.9262C55.1347 20.9318 55.0241 20.963 54.9241 21.0178C54.8241 21.0725 54.7371 21.1494 54.6696 21.2428C54.6185 21.2953 54.5741 21.3542 54.5374 21.4181V23.2808H54.138V21.6244C54.143 21.5325 54.1303 21.4405 54.1005 21.3536C54.0707 21.2668 54.0245 21.1869 53.9645 21.1184C53.9065 21.0533 53.8352 21.0023 53.7556 20.9691C53.6761 20.9358 53.5903 20.9212 53.5045 20.9262C53.3906 20.9321 53.2793 20.9635 53.1784 21.0182C53.0775 21.0729 52.9895 21.1495 52.9206 21.2428C52.872 21.2982 52.8269 21.3567 52.7856 21.4181V23.2808H52.3945V20.5955H52.7801V20.9206Z" fill="#171717"/>
<path d="M57.1328 20.6015H57.5322V20.9407C57.6158 20.7965 57.7481 20.6889 57.904 20.6383C58.1402 20.5411 58.3987 20.5161 58.6484 20.5662C58.8981 20.6164 59.1284 20.7396 59.3115 20.921C59.5423 21.207 59.6697 21.5661 59.6722 21.9375C59.6747 22.3088 59.5522 22.6697 59.3252 22.959C58.846 23.4961 58.1436 23.3745 57.5707 23.0636L57.5322 23.0381V24.3469H57.1328V20.6015ZM58.7413 21.0906C58.4108 20.8701 57.9288 20.921 57.5404 21.4552V22.5491C57.9453 22.9957 58.4686 23.0381 58.8157 22.7781C58.9373 22.672 59.0337 22.5387 59.0974 22.3885C59.1612 22.2383 59.1906 22.0751 59.1834 21.9114C59.1762 21.7477 59.1327 21.5879 59.056 21.4441C58.9794 21.3004 58.8718 21.1766 58.7413 21.0821" fill="#171717"/>
<path d="M32.2343 17.6079H24.6875V18.0545H32.2343V17.6079Z" fill="#171717"/>
<path d="M72.6436 17.6079H38.3086V18.0545H72.6436V17.6079Z" fill="#171717"/>
<path fill-rule="evenodd" clip-rule="evenodd" d="M45.9477 22.9248C46.0712 22.9291 46.1941 22.906 46.3082 22.8572C46.4222 22.8085 46.5248 22.7351 46.6088 22.6421C46.7884 22.4501 46.8874 22.1932 46.8842 21.927C46.8862 21.6593 46.7875 21.4011 46.6088 21.2062C46.5263 21.1112 46.4241 21.0365 46.3096 20.9875C46.1952 20.9386 46.0715 20.9167 45.9477 20.9235C45.8234 20.9186 45.6994 20.9414 45.5844 20.9901C45.4693 21.0389 45.3659 21.1126 45.2812 21.2062C45.1002 21.3997 45.0011 21.6588 45.0058 21.927C45.003 22.059 45.0259 22.1903 45.0732 22.3131C45.1205 22.4359 45.1912 22.5477 45.2812 22.6421C45.367 22.7343 45.4706 22.807 45.5854 22.8557C45.7002 22.9043 45.8236 22.9279 45.9477 22.9248ZM45.9477 23.3121C45.7706 23.318 45.5942 23.2861 45.4297 23.2185C45.2652 23.1509 45.1161 23.0489 44.992 22.9192C44.8669 22.7863 44.7691 22.629 44.7043 22.4566C44.6395 22.2843 44.609 22.1003 44.6147 21.9157C44.6064 21.729 44.6356 21.5426 44.7005 21.368C44.7654 21.1935 44.8647 21.0345 44.992 20.9009C45.1152 20.7695 45.264 20.6662 45.4286 20.5975C45.5933 20.5289 45.7701 20.4964 45.9477 20.5023C46.1246 20.4956 46.3009 20.5277 46.4647 20.5964C46.6286 20.6652 46.7763 20.769 46.898 20.9009C47.0244 21.033 47.1235 21.1901 47.1893 21.3625C47.2551 21.5349 47.2862 21.7193 47.2808 21.9044C47.2851 22.0893 47.2535 22.2733 47.1877 22.4456C47.122 22.6179 47.0235 22.775 46.898 22.9078C46.7744 23.0369 46.6263 23.1384 46.4628 23.2061C46.2993 23.2737 46.1239 23.3059 45.9477 23.3008" fill="#171717"/>
<path fill-rule="evenodd" clip-rule="evenodd" d="M61.4974 22.9249C61.6207 22.9277 61.7432 22.904 61.857 22.8553C61.9709 22.8066 62.0735 22.734 62.1584 22.6422C62.3386 22.4505 62.4376 22.1934 62.4338 21.9271C62.4364 21.6593 62.3377 21.4009 62.1584 21.2063C62.0734 21.1134 61.9708 21.0394 61.8569 20.9888C61.7429 20.9383 61.6201 20.9122 61.496 20.9122C61.3719 20.9122 61.2491 20.9383 61.1351 20.9888C61.0212 21.0394 60.9186 21.1134 60.8336 21.2063C60.7432 21.3015 60.6723 21.4143 60.625 21.5381C60.5777 21.6619 60.555 21.7941 60.5582 21.9271C60.5544 22.0592 60.5769 22.1907 60.6243 22.3137C60.6716 22.4366 60.7428 22.5484 60.8336 22.6422C60.9185 22.734 61.0211 22.8066 61.135 22.8553C61.2488 22.904 61.3713 22.9277 61.4946 22.9249M61.4946 23.3121C61.3174 23.3193 61.1406 23.288 60.9759 23.2203C60.8112 23.1526 60.6623 23.05 60.5389 22.9192C60.4132 22.7868 60.3149 22.6296 60.2501 22.4571C60.1852 22.2847 60.1551 22.1005 60.1615 21.9157C60.1532 21.7286 60.1829 21.5417 60.2488 21.367C60.3147 21.1922 60.4154 21.0335 60.5444 20.901C60.667 20.7687 60.8157 20.6648 60.9804 20.5961C61.1452 20.5274 61.3224 20.4954 61.5001 20.5024C61.6777 20.4967 61.8545 20.5292 62.0191 20.5978C62.1837 20.6665 62.3325 20.7697 62.4559 20.901C62.5793 21.0348 62.6757 21.1923 62.7395 21.3646C62.8033 21.5368 62.8333 21.7203 62.8277 21.9044C62.8372 22.2761 62.7036 22.6366 62.4559 22.9079C62.3316 23.0376 62.1826 23.1394 62.0181 23.207C61.8536 23.2746 61.6772 23.3066 61.5001 23.3008" fill="#171717"/>
<path fill-rule="evenodd" clip-rule="evenodd" d="M64.4114 22.7131L65.1578 20.5479H65.4084L66.1548 22.7074L66.9481 20.5931H67.3282L66.265 23.4H66.0226L65.2735 21.2969L64.527 23.4H64.2819L63.2188 20.5931H63.6209L64.4114 22.7131Z" fill="#171717"/>
<path fill-rule="evenodd" clip-rule="evenodd" d="M69.5794 21.6418C69.5565 21.4934 69.4957 21.3539 69.4031 21.2376C69.3333 21.1498 69.2443 21.0802 69.1432 21.0345C69.0422 20.9888 68.9321 20.9683 68.8219 20.9747C68.7153 20.9764 68.6105 21.0026 68.5151 21.0516C68.4198 21.1005 68.3363 21.1708 68.2711 21.2573C68.1832 21.3722 68.1186 21.5038 68.081 21.6446L69.5794 21.6418ZM68.0259 21.9753C68.0248 22.1071 68.0499 22.2377 68.0996 22.3592C68.1493 22.4807 68.2227 22.5905 68.3151 22.682C68.4039 22.7783 68.5112 22.8546 68.6302 22.9062C68.7492 22.9578 68.8773 22.9835 69.0065 22.9816C69.1662 22.9814 69.3246 22.9527 69.4747 22.8968C69.6336 22.8347 69.7808 22.7448 69.9099 22.6311L70.0063 22.5548V22.9901H69.987C69.8469 23.1113 69.6876 23.2069 69.516 23.2728C69.263 23.3652 68.9905 23.3862 68.7269 23.3335C68.4633 23.2807 68.2183 23.1563 68.0177 22.9731C67.8917 22.8408 67.7932 22.6836 67.7278 22.5112C67.6625 22.3388 67.6318 22.1546 67.6376 21.9697C67.6255 21.603 67.7417 21.244 67.9653 20.9577C68.0748 20.8351 68.2076 20.7368 68.3555 20.6688C68.5035 20.6009 68.6634 20.5647 68.8254 20.5626C68.9875 20.5605 69.1482 20.5924 69.2978 20.6565C69.4473 20.7206 69.5825 20.8154 69.695 20.9351C69.9036 21.2078 70.0127 21.5468 70.0035 21.8933V21.9499L68.0259 21.9753Z" fill="#171717"/>
<path fill-rule="evenodd" clip-rule="evenodd" d="M71.2333 20.946C71.2861 20.8484 71.3572 20.7625 71.4424 20.6931C71.5277 20.6238 71.6255 20.5724 71.7301 20.5419C71.8348 20.5115 71.9443 20.5025 72.0524 20.5156C72.1604 20.5287 72.2649 20.5635 72.3598 20.6181C72.3598 20.6181 72.379 20.6181 72.3901 20.6323V21.0902C72.357 21.0534 72.3901 21.0902 72.357 21.0704C71.7318 20.7114 71.3544 21.2287 71.2305 21.5679V23.3374H70.8477V20.522H71.2333V20.946Z" fill="#171717"/>
</svg>
