<svg width="107" height="24" viewBox="0 0 107 24" fill="none" xmlns="http://www.w3.org/2000/svg">
<g clip-path="url(#clip0_14638_5225)">
<g clip-path="url(#clip1_14638_5225)">
<path d="M84.9598 0.841836C85.0663 0.088431 86.3122 -0.250153 86.9984 0.207272C87.0785 0.378432 87.0393 0.567531 87.0584 0.746166C86.7772 0.676655 86.4905 0.623588 86.1957 0.630314C85.9882 0.761114 85.7579 0.930779 85.8189 1.17145C85.9609 1.52274 86.3522 1.74248 86.6343 2.0138C86.8027 2.01978 86.9729 2.02352 87.144 2.028C87.1394 2.27839 87.1476 2.52878 87.1203 2.77842C86.9429 2.77244 86.7672 2.77019 86.5925 2.77019C86.5952 3.11999 86.5998 3.47053 86.587 3.82033C85.8908 3.80538 85.1937 3.81509 84.4975 3.81734C84.6977 4.09986 84.9489 4.57672 85.4494 4.43023C85.8453 4.31437 86.2758 4.24561 86.6926 4.32932C86.992 4.4377 87.0339 4.73518 87.0566 4.97136C87.0311 5.27556 86.9365 5.59472 86.6771 5.82343C86.4705 6.02075 86.182 6.13436 85.9117 6.25918C86.2412 6.48415 86.6535 6.60523 86.9865 6.82647C86.7645 7.01408 86.5515 7.20841 86.3568 7.4147C85.7871 7.13292 85.2292 6.82348 84.745 6.44678C84.3619 6.40567 83.9068 6.44678 83.6102 6.19789C83.3772 6.05588 83.3926 5.79727 83.4199 5.58575C83.5401 5.3533 83.8304 5.25389 84.118 5.22474C84.5757 5.26286 84.877 5.55062 85.1846 5.79129C85.6687 5.81595 86.1338 5.19185 85.7379 4.87868C85.454 4.9026 85.2092 5.06853 84.9161 5.0461C84.2317 5.02069 83.7357 4.5401 83.4527 4.07146C83.2598 3.78595 83.3453 3.37187 83.7421 3.24032C84.189 3.19249 84.644 3.22837 85.0945 3.22239C85.241 3.21043 85.413 3.25752 85.5441 3.18128C85.5532 3.04076 85.5441 2.90025 85.5377 2.76048C84.5293 2.7829 83.5191 2.75226 82.5108 2.77468C82.4835 3.99224 82.5026 5.21203 82.5017 6.43034C82.1213 6.43183 81.7418 6.43034 81.3623 6.43407C81.3604 5.21278 81.3623 3.99149 81.3614 2.77019C81.0228 2.76571 80.6843 2.76571 80.3466 2.77767C80.3748 3.99522 80.3539 5.21428 80.353 6.43258C79.9926 6.43258 79.6313 6.43258 79.2718 6.42959C79.2691 5.87874 79.26 5.32789 79.2755 4.77778C79.1062 4.80244 78.9342 4.8159 78.764 4.81515C78.8168 5.24118 78.713 5.73598 78.2298 5.9759C77.5818 6.27861 76.679 6.26441 76.1029 5.85108C75.5405 5.45719 75.0445 4.95118 74.8516 4.35922C75.1155 4.26056 75.3903 4.18133 75.6488 4.07221C75.9245 4.41827 76.0592 4.84131 76.4333 5.13206C76.6826 5.30397 77.0057 5.45719 77.3434 5.41533C77.7766 5.29874 77.8912 4.76956 77.5381 4.53487C77.2942 4.32858 76.9265 4.37716 76.6126 4.37716C76.5115 4.21796 76.4224 4.05352 76.3313 3.89133C76.6726 3.74484 77.094 3.69625 77.317 3.4085C77.3324 3.20819 77.306 3.0004 77.0985 2.8696C76.6462 2.82625 76.2868 3.06916 76.0128 3.33226C75.8463 3.08486 75.7325 2.81728 75.5733 2.56764C76.1812 2.09751 77.1932 1.97269 77.9058 2.35463C78.5001 2.67527 78.592 3.47726 78.0414 3.85845C78.2607 3.9586 78.4664 4.09164 78.713 4.1462C78.896 4.12378 79.1162 4.11108 79.2463 3.9885C79.3 3.58863 79.2427 3.18352 79.2818 2.78215C79.0625 2.77468 78.845 2.76945 78.6275 2.7545C78.6302 2.5071 78.6302 2.25896 78.6384 2.01156C80.9991 2.03174 83.3617 2.028 85.7215 2.01305C85.3666 1.68194 84.8369 1.34037 84.9598 0.841836Z" fill="#2384C5"/>
<path d="M91.3753 0.203517C92.0788 -0.0603244 92.927 0.00395402 93.5895 0.320115C94.3203 0.660194 94.8008 1.27831 95.0911 1.90839C95.1203 3.41446 95.0839 4.92276 95.1093 6.42957C94.7262 6.43406 94.344 6.43406 93.9617 6.42808C93.9763 5.20903 93.9663 3.98923 93.9663 2.77018C93.6341 2.76719 93.3019 2.76868 92.9716 2.76868C92.9597 3.98923 92.9616 5.20977 92.9707 6.43032C92.6039 6.43331 92.238 6.43331 91.8731 6.42808C91.8713 5.84583 91.8804 5.26284 91.8695 4.67985C91.8986 4.47431 91.5919 4.58493 91.4572 4.58717C91.2351 4.35995 91.0659 4.10284 90.9148 3.84124C91.2342 3.85693 91.5546 3.86217 91.8749 3.84647C91.8758 3.48696 91.8749 3.12819 91.8695 2.76943C91.479 2.77391 91.0877 2.75 90.7 2.7769C90.6063 3.28291 90.8775 3.86814 90.4607 4.30688C90.3078 4.49449 90.0302 4.56475 89.7863 4.63874C90.2268 5.06776 90.6627 5.50052 91.0904 5.93851C90.7983 6.12089 90.5034 6.29952 90.2131 6.48339C89.506 5.61114 88.7197 4.78225 88.0508 3.88833C88.3111 3.72464 88.5832 3.57291 88.8526 3.41745C88.9663 3.62075 89.1192 3.81284 89.3586 3.93168C89.4223 3.88534 89.4869 3.839 89.5533 3.79265C89.5497 3.44884 89.5597 3.10577 89.5424 2.76196C89.1957 2.76943 88.8507 2.77018 88.5058 2.76943C88.5067 2.51904 88.5076 2.2694 88.5076 2.01976C89.3285 2.02051 90.1503 2.03471 90.9712 2.01229C90.6572 1.69613 90.5726 1.27458 90.6709 0.881432C90.781 0.589189 91.0477 0.345528 91.3753 0.203517ZM91.8695 0.823133C91.4344 1.02942 91.4463 1.6012 91.8449 1.83066C92.2626 2.0818 92.8005 2.01602 93.2855 2.02499C93.5331 2.01827 93.8088 2.07358 94.0218 1.93754C93.8252 1.58999 93.5786 1.24094 93.1782 1.02718C92.805 0.82089 92.3072 0.634782 91.8695 0.823133Z" fill="#2384C5"/>
<path d="M47.1278 3.7611C49.4749 2.4262 52.3044 1.68326 55.1556 1.62122C56.9567 1.58909 58.7605 1.62347 60.5624 1.60254C60.5742 3.84556 60.5651 6.08933 60.567 8.33236C54.5095 8.34357 48.452 8.33684 42.3945 8.33385C43.4111 6.48846 45.1011 4.90691 47.1278 3.7611Z" fill="#2384C5"/>
<path d="M0.000331255 1.98401C1.45737 2.00045 2.91804 1.94514 4.37234 2.02512C6.58747 2.00942 8.80442 2.04455 11.0196 2.00718C11.6175 2.7404 12.1244 3.51997 12.6886 4.27038C13.6679 5.62771 14.659 6.97905 15.63 8.34086C10.4216 8.33563 5.21326 8.33563 0.00488192 8.34011C-0.00512893 6.22116 0.00397157 4.10296 0.000331255 1.98401Z" fill="#2384C5"/>
<path d="M18.4648 1.99119C21.4708 1.974 24.4777 1.9882 27.4846 1.98371C27.4764 4.10491 27.501 6.22685 27.4719 8.3473C24.4777 8.32936 21.4827 8.3316 18.4885 8.3458C18.4512 6.2276 18.4958 4.10939 18.4648 1.99119Z" fill="#2384C5"/>
<path d="M30.0316 1.98407C33.1741 1.98407 36.3166 1.98333 39.4591 1.98482C39.4391 4.10004 39.4573 6.216 39.45 8.33121C36.312 8.34765 33.1741 8.32897 30.0361 8.34018C30.0261 6.22123 30.0352 4.10302 30.0316 1.98407Z" fill="#2384C5"/>
<path d="M65.4811 2.02522C68.4252 2.01924 71.3693 2.02672 74.3134 2.02148C74.3098 2.27038 74.3061 2.51927 74.3089 2.76816C74.095 2.76816 73.882 2.76891 73.67 2.77489C73.6764 3.99618 73.6764 5.21673 73.67 6.43802C73.3069 6.42905 72.9437 6.43204 72.5815 6.4298C72.5806 5.7317 72.587 5.03436 72.577 4.33626C72.1529 4.34224 71.7288 4.34075 71.3056 4.33626C71.3174 4.60235 71.3256 4.88039 71.1573 5.11882C71.0007 5.11508 70.8133 5.17487 70.6886 5.06949C70.3182 4.79967 69.9669 4.50219 69.7121 4.15165C69.611 4.02757 69.5992 3.87062 69.6402 3.72786C69.7648 3.55221 70.0406 3.55445 70.2572 3.54997C71.0326 3.55296 71.808 3.55595 72.5834 3.54773C72.5843 3.28837 72.5824 3.02901 72.5797 2.76966C71.3666 2.76742 70.1544 2.76667 68.9421 2.77115C68.9339 3.28463 68.9567 3.79886 68.933 4.3116C68.8739 4.69353 68.3779 4.83704 67.9838 4.91253C67.6808 4.69876 67.365 4.49696 67.0765 4.26974C67.3249 4.27049 67.5834 4.26974 67.8091 4.16884C67.8045 3.70469 67.7863 3.24054 67.8164 2.77713C67.4178 2.76368 67.0182 2.76816 66.6196 2.77414C66.6205 3.40347 66.6223 4.03281 66.6178 4.66214C67.304 5.17936 68.0521 5.63828 68.7492 6.14578C68.9376 6.28181 69.0641 6.48137 69.0432 6.6914C69.0641 7.04493 68.6364 7.26468 68.2778 7.36259C68.1249 7.35885 67.9119 7.40519 67.8182 7.27738C67.6853 7.13836 67.5743 6.98663 67.4596 6.83715C67.6917 6.87975 67.9201 6.81996 68.023 6.63534C67.1875 6.04413 66.322 5.48132 65.4766 4.89907C65.4911 3.94087 65.482 2.98267 65.4811 2.02522Z" fill="#2384C5"/>
<path d="M65.3874 7.99911C65.8224 8.00509 66.2565 7.99687 66.6915 8.00435C67.405 9.07017 68.1458 10.124 68.9066 11.1675C68.8702 10.1136 68.9066 9.05896 68.8821 8.00509C69.277 8.00435 69.6729 8.0036 70.0688 7.99463C70.0734 9.56945 70.0879 11.145 70.0615 12.7199C69.6547 12.7071 69.2479 12.7034 68.842 12.7176C68.0375 11.6443 67.3322 10.5202 66.5022 9.46033C66.5632 10.5419 66.4949 11.6256 66.5304 12.7079C66.1482 12.7131 65.765 12.7109 65.3828 12.7064C65.3974 11.1376 65.3874 9.56796 65.3874 7.99911Z" fill="#2384C5"/>
<path d="M78.0391 8.00436C78.4349 8.00062 78.8308 8.00062 79.2267 8.00137C79.2258 8.28763 79.2276 8.57464 79.2131 8.86091C78.8236 8.85941 78.4349 8.86016 78.0463 8.85941C78.04 8.57464 78.0391 8.28987 78.0391 8.00436Z" fill="#2384C5"/>
<path d="M93.9664 7.99902C94.3596 8.00276 94.7527 8.00201 95.1468 7.99977C95.155 9.57011 95.144 11.1405 95.1531 12.7108C94.7554 12.7108 94.3577 12.7123 93.9609 12.7056C93.98 11.1367 93.9655 9.56787 93.9664 7.99902Z" fill="#2384C5"/>
<path d="M75.4892 8.30317C75.8669 8.30392 76.2446 8.30243 76.6232 8.29346C76.6313 8.61933 76.6286 8.94447 76.6286 9.27034C76.8534 9.27184 77.0791 9.2681 77.3057 9.26586C77.3139 9.49382 77.3148 9.72179 77.3075 9.94975C77.08 9.94602 76.8534 9.94228 76.6268 9.94676C76.6395 10.6067 76.6095 11.2675 76.6414 11.9267C76.7688 12.1098 77.0964 12.0194 77.3103 12.0396C77.3066 12.275 77.3121 12.5104 77.3121 12.7459C76.8188 12.722 76.2964 12.8199 75.8314 12.648C75.603 12.562 75.4965 12.3393 75.4874 12.1449C75.491 11.411 75.4974 10.677 75.4865 9.94303C75.2926 9.94228 75.1006 9.94228 74.9086 9.94153C74.8885 9.71805 74.8904 9.49457 74.9113 9.27184C75.1042 9.27184 75.299 9.27259 75.4938 9.27034C75.4947 8.9482 75.4928 8.62531 75.4892 8.30317Z" fill="#2384C5"/>
<path d="M81.5896 9.12779C82.223 9.07622 82.9201 9.14274 83.4234 9.49104C84.318 10.1906 84.3981 11.4485 83.6628 12.249C83.2396 12.7087 82.4933 12.8657 81.8217 12.8231C81.2283 12.8328 80.604 12.6407 80.2536 12.2341C79.6229 11.5323 79.6093 10.5001 80.2081 9.78029C80.5157 9.39911 81.0454 9.17936 81.5896 9.12779ZM81.3721 10.0695C81.0472 10.293 81.0053 10.6615 80.948 10.9822C81.0081 11.2408 81.0144 11.524 81.2183 11.743C81.5259 12.1085 82.233 12.1414 82.6089 11.8282C82.8792 11.5973 82.9374 11.2617 82.9584 10.9545C82.9283 10.592 82.8228 10.1346 82.355 9.98808C82.0392 9.85279 81.657 9.91259 81.3721 10.0695Z" fill="#2384C5"/>
<path d="M71.8772 9.22273C72.5306 9.10389 73.2423 9.12033 73.8675 9.3326C74.2507 9.46116 74.4918 9.79899 74.4891 10.1346C74.4982 10.8312 74.4855 11.5285 74.4909 12.2259C74.4882 12.409 74.6811 12.5368 74.7712 12.6923C74.3298 12.708 73.8784 12.7438 73.4425 12.6803C73.3843 12.5719 73.4079 12.4524 73.3979 12.338C73.0357 12.6078 72.588 12.8515 72.0765 12.8261C71.4913 12.8612 70.8488 12.5764 70.7259 12.0786C70.705 11.7714 70.6577 11.4299 70.8834 11.1623C71.1409 10.8065 71.6661 10.7049 72.1256 10.6324C72.5006 10.5711 72.9265 10.6129 73.255 10.4246C73.4653 10.2773 73.3033 10.0135 73.0712 9.96193C72.7909 9.88794 72.4596 9.86252 72.203 9.9993C72.0355 10.0845 72.0001 10.2549 71.9282 10.3924C71.5632 10.3895 71.1992 10.3969 70.8352 10.3857C70.8215 9.86028 71.2365 9.34232 71.8772 9.22273ZM72.1065 11.3484C71.9336 11.4112 71.8927 11.5779 71.818 11.7049C71.8553 11.7999 71.8908 11.8955 71.9263 11.9919C72.264 12.1885 72.7691 12.1459 73.0703 11.9157C73.367 11.7109 73.3379 11.3529 73.3615 11.0644C72.9629 11.2161 72.5042 11.1982 72.1065 11.3484Z" fill="#2384C5"/>
<path d="M85.9583 9.62013C86.2013 9.42131 86.4625 9.21278 86.8183 9.16943C87.2434 9.14252 87.7048 9.12384 88.0815 9.31817C88.4829 9.47961 88.6822 9.85258 88.6904 10.2054C88.6904 11.0395 88.6795 11.8736 88.6922 12.7077C88.2963 12.7122 87.9004 12.7107 87.5055 12.707C87.5 11.9334 87.5191 11.1598 87.4973 10.387C87.4763 9.8892 86.6109 9.80474 86.2614 10.1194C85.9829 10.3332 85.9902 10.6635 85.9601 10.9513C85.9538 11.5373 85.9556 12.1225 85.9611 12.7085C85.5806 12.71 85.2011 12.7085 84.8216 12.7122C84.8226 11.55 84.8162 10.3885 84.8253 9.22698C85.2039 9.23446 85.5825 9.23222 85.9611 9.23969C85.9583 9.366 85.9556 9.49307 85.9583 9.62013Z" fill="#2384C5"/>
<path d="M90.3163 9.27342C90.9497 9.09703 91.665 9.11272 92.3011 9.2779C92.7225 9.37133 93.0902 9.67554 93.0975 10.0478C93.112 10.7496 93.0947 11.4514 93.1029 12.1533C93.0938 12.358 93.2767 12.5158 93.3787 12.6899C92.9628 12.728 92.5441 12.7041 92.1282 12.7131C92.1009 12.6839 92.0481 12.6256 92.0208 12.5965C92.0208 12.53 92.0208 12.3969 92.0208 12.3304C91.6386 12.6488 91.108 12.8745 90.552 12.8237C89.9868 12.82 89.3889 12.4799 89.3343 11.9948C89.3033 11.7055 89.3079 11.3924 89.5172 11.1442C89.7101 10.8639 90.1106 10.7586 90.4664 10.6793C90.9005 10.5807 91.3719 10.6195 91.7924 10.4775C92.0136 10.3819 92.0063 10.1195 91.8106 10.0081C91.4975 9.8594 91.0816 9.86164 90.7749 10.0194C90.6566 10.124 90.6029 10.2653 90.5256 10.3901C90.1625 10.3878 89.7993 10.3923 89.438 10.3893C89.4608 9.92219 89.7557 9.43935 90.3163 9.27342ZM90.7504 11.3371C90.4328 11.4439 90.3718 11.8371 90.6139 12.0232C90.9761 12.2093 91.473 12.1077 91.7678 11.873C91.9726 11.6457 91.979 11.3505 91.9735 11.0799C91.574 11.1936 91.139 11.1995 90.7504 11.3371Z" fill="#2384C5"/>
<path d="M0.00911891 9.18604C2.67474 9.21369 5.34126 9.18977 8.00688 9.19799C10.769 9.19201 13.532 9.2092 16.295 9.18902C16.9056 9.97606 17.4862 10.7788 18.0814 11.5733C18.2716 11.8244 18.4373 12.0898 18.6785 12.3118C18.6166 11.2743 18.5192 10.2392 18.4637 9.20173C21.4687 9.18753 24.4747 9.2107 27.4798 9.19052C27.4925 10.287 27.4816 11.3842 27.4853 12.4807C18.3235 12.4859 9.16177 12.4889 1.82777e-05 12.4792C0.00820898 11.3812 -0.00999271 10.284 0.00911891 9.18604Z" fill="#2384C5"/>
<path d="M30.0404 9.18652C33.1765 9.21194 36.3135 9.1925 39.4496 9.19549C39.4487 10.2942 39.4606 11.3929 39.4442 12.4909C36.3062 12.4715 33.1683 12.4961 30.0312 12.4789C30.0394 11.381 30.0221 10.2837 30.0404 9.18652Z" fill="#2384C5"/>
<path d="M41.7726 9.60702C41.85 9.45529 41.8372 9.15782 42.1266 9.20042C45.6049 9.20042 49.0833 9.18846 52.5607 9.20565C51.778 9.80135 51.1036 10.5301 50.8543 11.3971C50.7077 11.7491 50.6995 12.1221 50.6313 12.4861C47.4651 12.4809 44.299 12.4883 41.1328 12.4824C41.2256 11.5092 41.4086 10.5391 41.7726 9.60702Z" fill="#2384C5"/>
<path d="M78.0391 9.23242C78.4331 9.23392 78.8281 9.23317 79.224 9.23765C79.2222 10.3947 79.2194 11.5517 79.2267 12.7087C78.8308 12.7124 78.4359 12.7109 78.0409 12.7065C78.0409 11.5487 78.0454 10.3909 78.0391 9.23242Z" fill="#2384C5"/>
<path d="M0.00124821 13.3447C9.09838 13.3447 18.1955 13.3447 27.2936 13.3447C27.3655 13.8896 27.3746 14.439 27.431 14.9853C27.4246 15.3284 27.5265 15.667 27.4701 16.01C21.9714 15.9787 16.47 16.022 10.9722 15.9884C10.3607 15.211 9.82372 14.3911 9.23399 13.6026C9.20759 13.5906 9.1539 13.566 9.12751 13.554C9.25492 14.3665 9.25947 15.1894 9.37869 16.0033C6.25621 15.9996 3.13374 15.9921 0.0112591 16.0071C-0.0114928 15.1199 0.00852883 14.2319 0.00124821 13.3447Z" fill="#2384C5"/>
<path d="M30.032 13.3447C33.1745 13.3455 36.317 13.344 39.4595 13.3455C39.4422 14.2289 39.4504 15.1131 39.4568 15.9966C36.3179 16.0078 33.1782 15.9899 30.0393 16.0056C30.0229 15.1184 30.0375 14.2319 30.032 13.3447Z" fill="#2384C5"/>
<path d="M41.1641 13.3495C44.3603 13.3435 47.5555 13.3398 50.7508 13.351C50.8855 14.0558 51.2577 14.7247 51.7938 15.2846C52.0331 15.5447 52.3453 15.751 52.6083 15.9946C48.9789 16.014 45.3486 15.9812 41.7201 16.0118C41.3825 15.1508 41.2196 14.2509 41.1641 13.3495Z" fill="#2384C5"/>
<path d="M72.6778 13.6863C73.1119 13.3656 73.7344 13.4561 74.2677 13.468C74.2632 13.7296 74.2641 13.992 74.2586 14.2536C74.1412 14.2327 74.0257 14.2102 73.911 14.1871C73.8036 14.2446 73.5797 14.2446 73.5925 14.3866C73.5761 14.495 73.5752 14.6034 73.5879 14.7118C73.8236 14.7521 74.0684 14.7222 74.3096 14.7275C74.3087 14.9517 74.306 15.1759 74.3105 15.4009C74.0675 15.4001 73.8245 15.3994 73.5834 15.4001C73.5806 16.3359 73.5806 17.2717 73.5806 18.2075C73.1875 18.2075 72.7943 18.2037 72.4021 18.2082C72.393 17.2717 72.4066 16.3352 72.393 15.3986C72.1964 15.3994 72.0007 15.4001 71.806 15.4016C71.8023 15.1789 71.8005 14.9569 71.7969 14.7342C71.9953 14.7297 72.1946 14.7282 72.3948 14.7267C72.3975 14.3739 72.3766 13.9688 72.6778 13.6863Z" fill="#2384C5"/>
<path d="M65.3137 13.4932C65.7168 13.4947 66.1209 13.4932 66.5259 13.4947C66.5286 15.0657 66.5432 16.6368 66.5204 18.2079C66.1154 18.2072 65.7104 18.2034 65.3055 18.2087C65.3064 16.6368 65.29 15.0643 65.3137 13.4932Z" fill="#2384C5"/>
<path d="M96.6914 13.4562C97.0727 13.4554 97.455 13.4584 97.8381 13.4592C97.8363 13.7447 97.8372 14.0302 97.8299 14.3157C97.4504 14.3172 97.0709 14.3165 96.6923 14.3165C96.7005 14.0294 96.6978 13.7432 96.6914 13.4562Z" fill="#2384C5"/>
<path d="M94.114 13.7505C94.488 13.7535 94.863 13.7557 95.2388 13.7565C95.237 14.0809 95.2343 14.406 95.2434 14.7304C95.4672 14.7296 95.692 14.7251 95.9177 14.7236C95.9214 14.9494 95.9214 15.1751 95.9196 15.4008C95.692 15.403 95.4654 15.3993 95.2406 15.3978C95.2497 16.081 95.2124 16.7656 95.2579 17.4488C95.4709 17.5093 95.6948 17.5407 95.9223 17.5145C95.9205 17.7537 95.9214 17.9936 95.9177 18.2335C95.3817 18.2298 94.7638 18.3225 94.3115 18.028C94.0266 17.8045 94.1158 17.4465 94.1003 17.1565C94.1049 16.5743 94.0967 15.9913 94.1049 15.409C93.9074 15.3986 93.7099 15.3971 93.5142 15.3948C93.5079 15.1736 93.506 14.9516 93.5097 14.7304C93.6981 14.7079 93.9265 14.7872 94.0939 14.6893C94.1149 14.3761 94.0876 14.0629 94.114 13.7505Z" fill="#2384C5"/>
<path d="M69.1142 14.7266C69.6739 14.5405 70.362 14.5757 70.8598 14.8687C71.1929 15.063 71.313 15.4143 71.3057 15.7357C71.3012 16.5616 71.3103 17.3882 71.3012 18.2141C70.908 18.1962 70.5149 18.1969 70.1217 18.2067C70.119 17.4114 70.1372 16.6154 70.1153 15.8209C70.0252 15.2947 69.0178 15.27 68.7657 15.711C68.6801 15.859 68.6173 16.0189 68.6201 16.1841C68.611 16.8613 68.6365 17.5377 68.6073 18.2141C68.2196 18.1999 67.8329 18.1992 67.4461 18.1984C67.4224 17.031 67.4506 15.8635 67.4297 14.696C67.8147 14.687 68.2005 14.6878 68.5855 14.6945C68.5773 14.8335 68.5636 14.9725 68.5518 15.1116C68.7429 14.9882 68.9049 14.832 69.1142 14.7266Z" fill="#2384C5"/>
<path d="M76.0337 14.6513C76.6662 14.5265 77.3597 14.5638 77.9385 14.8172C78.4736 15.0982 78.8012 15.5923 78.8941 16.1005C78.9596 16.6618 78.8768 17.2762 78.4217 17.7247C78.0195 18.1858 77.2832 18.3241 76.6298 18.3181C76.1038 18.2733 75.5277 18.1873 75.16 17.845C74.4447 17.197 74.3346 16.1633 74.856 15.4077C75.0918 15.0302 75.5268 14.7425 76.0337 14.6513ZM76.4969 15.4084C76.2021 15.457 75.9736 15.6468 75.8662 15.8711C75.6751 16.2777 75.6797 16.7553 75.9263 17.1447C76.1875 17.5543 76.9037 17.6014 77.3315 17.3502C77.62 17.132 77.6855 16.7941 77.7182 16.4884C77.7082 16.1708 77.6518 15.815 77.3497 15.5885C77.1367 15.3979 76.7918 15.3561 76.4969 15.4084Z" fill="#2384C5"/>
<path d="M81.1307 14.7962C81.4037 14.6318 81.7541 14.6168 82.079 14.5981C82.099 14.9278 82.0908 15.2574 82.0918 15.587C81.7332 15.5982 81.3027 15.5145 81.0297 15.7596C80.743 15.9525 80.7467 16.2784 80.7266 16.5557C80.7185 17.1065 80.7321 17.6581 80.7148 18.2097C80.3389 18.2097 79.964 18.2045 79.589 18.2045C79.5863 17.0348 79.6082 15.8635 79.5781 14.6938C79.9403 14.6886 80.3035 14.6901 80.6675 14.6886C80.6775 14.8627 80.6811 15.0376 80.693 15.2125C80.8277 15.0668 80.956 14.9128 81.1307 14.7962Z" fill="#2384C5"/>
<path d="M84.3605 14.6983C84.9629 14.498 85.7502 14.643 86.0632 15.1408C86.45 14.7334 87.1144 14.507 87.7314 14.6632C88.2656 14.7469 88.6633 15.158 88.697 15.5952C88.6879 16.4652 88.6879 17.336 88.6925 18.2067C88.2984 18.209 87.9043 18.2037 87.5112 18.1992C87.5075 17.4271 87.5094 16.6551 87.5103 15.883C87.5303 15.6281 87.2281 15.3934 86.9178 15.4338C86.5092 15.3956 86.2298 15.7335 86.2307 16.0369C86.2362 16.7567 86.2352 17.4765 86.2343 18.1962C85.8394 18.2097 85.4444 18.2075 85.0503 18.2007C85.0594 17.5034 85.0467 16.8053 85.0576 16.1079C85.0512 15.9345 85.0694 15.729 84.9038 15.5982C84.5825 15.2633 83.7771 15.451 83.7799 15.8942C83.7717 16.6648 83.778 17.4361 83.7762 18.2075C83.3831 18.2075 82.9899 18.2045 82.5977 18.2067C82.6058 17.034 82.5695 15.8598 82.6077 14.6878C82.9681 14.7028 83.3348 14.6617 83.6925 14.7132C83.6961 14.8508 83.6807 14.9883 83.6807 15.1258C83.8927 14.9696 84.0674 14.7573 84.3605 14.6983Z" fill="#2384C5"/>
<path d="M89.8819 14.9636C90.4234 14.6063 91.1705 14.5644 91.8331 14.6489C92.2371 14.7199 92.7049 14.8111 92.9379 15.1205C93.1709 15.4143 93.0899 15.7775 93.1017 16.1079C93.109 16.6348 93.0826 17.1625 93.1154 17.6887C93.1208 17.8778 93.2901 18.0205 93.392 18.1797C92.9625 18.2156 92.5275 18.2201 92.0979 18.1917C92.0151 18.0945 92.0478 17.9622 92.0187 17.8531C91.7029 18.0176 91.3981 18.2276 91.0149 18.2687C90.6172 18.2911 90.1795 18.318 89.8382 18.1155C89.2967 17.8576 89.2157 17.2522 89.405 16.8052C89.5752 16.4158 90.0675 16.2006 90.5408 16.1355C90.9749 16.0548 91.4627 16.1086 91.8549 15.9068C92.0952 15.77 91.9204 15.4487 91.6629 15.421C91.3962 15.3829 91.1068 15.3679 90.8502 15.4487C90.6745 15.5309 90.6236 15.699 90.5517 15.841C90.1822 15.8493 89.8127 15.8545 89.4441 15.8381C89.4532 15.7416 89.465 15.646 89.4778 15.5503C89.577 15.3418 89.6598 15.1101 89.8819 14.9636ZM90.8948 16.7574C90.5508 16.8321 90.3142 17.1864 90.5571 17.4383C90.8475 17.7246 91.3698 17.6042 91.6811 17.4062C91.9978 17.2006 91.9568 16.8344 91.9841 16.5384C91.6365 16.6617 91.2579 16.6871 90.8948 16.7574Z" fill="#2384C5"/>
<path d="M99.5452 14.7552C100.252 14.5294 101.109 14.5631 101.756 14.9009C102.186 15.1356 102.317 15.5706 102.377 15.966C101.983 15.9608 101.588 15.9645 101.195 15.9555C101.133 15.7448 101.006 15.5131 100.73 15.4473C100.498 15.4278 100.233 15.3994 100.038 15.5273C99.699 15.7246 99.6207 16.0908 99.6071 16.4092C99.6025 16.7261 99.638 17.0774 99.902 17.3278C100.111 17.5289 100.472 17.5079 100.762 17.4788C101.048 17.3831 101.129 17.1155 101.192 16.8936C101.577 16.895 101.964 16.8928 102.351 16.8988C102.336 17.4153 101.936 17.8839 101.404 18.1388C100.79 18.3757 100.059 18.3622 99.4369 18.1552C98.5314 17.8129 98.3348 16.8846 98.4331 16.1499C98.4995 15.5781 98.8654 14.9786 99.5452 14.7552Z" fill="#2384C5"/>
<path d="M103.725 14.7379C104.16 14.5645 104.661 14.6124 105.13 14.6228C105.571 14.6774 106.052 14.8127 106.311 15.1326C106.471 15.3194 106.5 15.5526 106.553 15.7709C106.192 15.7754 105.83 15.7604 105.47 15.7903C105.352 15.6311 105.256 15.4293 105.013 15.377C104.685 15.2836 104.171 15.2813 104.016 15.5915C104.014 15.6887 104.066 15.7888 104.186 15.8254C104.887 16.0609 105.742 16.0228 106.335 16.457C106.899 16.9047 106.715 17.7553 106.042 18.0655C105.329 18.3794 104.456 18.3742 103.694 18.1866C103.112 18.0393 102.709 17.5453 102.744 17.0482C103.113 17.0393 103.484 17.0617 103.852 17.0228C103.927 17.1521 103.978 17.2926 104.082 17.4107C104.417 17.6155 104.887 17.6185 105.271 17.5131C105.506 17.4414 105.585 17.1559 105.331 17.0587C104.653 16.8068 103.846 16.8255 103.222 16.4682C102.939 16.3031 102.86 16.0033 102.888 15.7343C102.856 15.294 103.251 14.9046 103.725 14.7379Z" fill="#2384C5"/>
<path d="M96.6914 14.6904C97.0736 14.6904 97.4568 14.6881 97.8399 14.6941C97.819 15.8661 97.8545 17.038 97.8235 18.21C97.4486 18.21 97.0736 18.2047 96.6996 18.2047C96.695 17.0335 96.7123 15.8616 96.6914 14.6904Z" fill="#2384C5"/>
<path d="M0.00467565 16.8506C3.14171 16.8678 6.27966 16.8424 9.41761 16.8648C9.42489 17.4358 9.39213 18.0076 9.47403 18.5764C6.31606 18.5764 3.15809 18.5764 0.000124979 18.5764C0.00194513 18.0009 -0.00351505 17.4254 0.00467565 16.8506Z" fill="#2384C5"/>
<path d="M11.6914 16.8531C16.9535 16.8546 22.2155 16.8658 27.4776 16.8501C27.4967 17.4256 27.4822 18.0011 27.4867 18.5767C22.7525 18.5774 18.0183 18.5752 13.284 18.5774C12.9864 18.626 12.9 18.3487 12.7544 18.1985C12.4004 17.75 12.0381 17.3053 11.6914 16.8531Z" fill="#2384C5"/>
<path d="M30.0359 16.8506C33.173 16.8708 36.3109 16.8401 39.448 16.864C39.4561 17.4343 39.4443 18.0046 39.4516 18.5749C36.3118 18.5786 33.1721 18.5756 30.0314 18.5764C30.0332 18.0009 30.0277 17.4254 30.0359 16.8506Z" fill="#2384C5"/>
<path d="M42.082 16.854C48.2433 16.8667 54.4036 16.842 60.5639 16.8645C60.5721 17.4348 60.5602 18.005 60.5675 18.5753C54.743 18.5783 48.9176 18.5776 43.0931 18.5753C42.7327 18.0118 42.3105 17.4676 42.082 16.854Z" fill="#2384C5"/>
<path d="M66.8133 19.1882C67.4659 19.0051 68.1921 19.026 68.841 19.2106C69.6328 19.4341 70.2052 20.0806 70.2471 20.7645C69.8375 20.7197 69.418 20.7765 69.0139 20.7309C68.8847 20.5171 68.8155 20.2608 68.5561 20.1217C68.0674 19.8624 67.3193 19.8639 66.9207 20.2451C66.5176 20.5941 66.4229 21.1061 66.4338 21.5695C66.422 22.009 66.5167 22.4971 66.9235 22.8132C67.3303 23.1682 68.0638 23.2108 68.5334 22.9141C68.811 22.7661 68.8656 22.4776 69.0148 22.2549C69.4107 22.2011 69.8239 22.2556 70.2261 22.2444C70.1406 22.867 69.6965 23.4635 69.0166 23.761C68.284 24.0816 67.3767 24.0622 66.6204 23.8073C65.9388 23.5711 65.4746 23.0337 65.2835 22.4604C65.0978 21.7608 65.0842 21.0037 65.4073 20.3295C65.6539 19.8093 66.1681 19.3751 66.8133 19.1882Z" fill="#2384C5"/>
<path d="M80.2657 19.4421C80.6452 19.4272 81.0256 19.4361 81.407 19.4376C81.4052 19.7605 81.4042 20.0841 81.4079 20.4078C81.6327 20.4108 81.8584 20.4063 82.0841 20.4026C82.0923 20.632 82.0923 20.863 82.0741 21.0924C81.8529 21.0842 81.6336 21.0775 81.4143 21.0722C81.3979 21.6351 81.4124 22.1994 81.4015 22.7629C81.4061 22.8877 81.3851 23.0223 81.4561 23.1389C81.6636 23.1837 81.8802 23.171 82.0932 23.1845C82.0895 23.4154 82.0895 23.6464 82.0822 23.8773C81.5863 23.9289 81.0448 23.9685 80.5852 23.7727C80.3404 23.6673 80.2694 23.4281 80.2703 23.2189C80.2666 22.5656 80.2721 21.9116 80.2703 21.2584C80.3422 20.9624 79.8808 21.1104 79.6833 21.0767C79.6769 20.8547 79.6751 20.6335 79.676 20.4123C79.8662 20.3906 80.091 20.4631 80.2621 20.3712C80.283 20.0617 80.2648 19.7515 80.2657 19.4421Z" fill="#2384C5"/>
<path d="M0 19.4736C3.16889 19.4744 6.33869 19.4729 9.50758 19.4744C9.5094 19.8728 9.52214 20.2719 9.49666 20.6703C6.33141 20.668 3.16616 20.6703 0 20.6695C0 20.2704 0 19.872 0 19.4736Z" fill="#2384C5"/>
<path d="M13.7617 19.5057C14.1148 19.4549 14.4752 19.4758 14.832 19.4736C19.0502 19.4736 23.2675 19.4736 27.4848 19.4736C27.4848 19.872 27.4848 20.2711 27.4848 20.6695C23.2329 20.6725 18.9819 20.6643 14.73 20.6732C14.3906 20.2935 14.1185 19.8757 13.7617 19.5057Z" fill="#2384C5"/>
<path d="M30.0352 19.4738C33.1777 19.4738 36.3202 19.4731 39.4627 19.4746C39.4463 19.8722 39.4526 20.2698 39.4554 20.6682C36.3156 20.6719 33.1758 20.669 30.0352 20.6697C30.0352 20.2706 30.0352 19.8722 30.0352 19.4738Z" fill="#2384C5"/>
<path d="M43.8555 19.5058C44.1613 19.4617 44.4725 19.4714 44.7819 19.4737C50.0467 19.4744 55.3106 19.4729 60.5754 19.4744C60.559 19.872 60.5654 20.2697 60.5681 20.6681C55.4198 20.674 50.2715 20.6643 45.1241 20.6725C44.6509 20.322 44.2841 19.89 43.8555 19.5058Z" fill="#2384C5"/>
<path d="M70.8798 21.1828C71.1902 20.5774 72.0265 20.2351 72.8046 20.2911C73.428 20.2642 74.086 20.4585 74.4646 20.8808C74.8641 21.3061 74.9351 21.8682 74.9024 22.3884C73.8712 22.3817 72.8401 22.4018 71.8099 22.3809C71.8336 22.6814 71.991 23.0162 72.366 23.1231C72.8274 23.3257 73.4508 23.1822 73.6965 22.798C74.0878 22.801 74.4792 22.7957 74.8705 22.8099C74.7176 23.3414 74.1834 23.7741 73.5409 23.9027C72.7855 24.0679 71.9191 23.9692 71.3021 23.5596C70.8989 23.298 70.7042 22.872 70.6732 22.4601C70.6678 22.0311 70.6295 21.5767 70.8798 21.1828ZM72.3168 21.1499C72.0329 21.2613 71.9191 21.5199 71.8299 21.7493C72.4552 21.7576 73.0822 21.7665 73.7083 21.7411C73.671 21.1955 72.8711 20.907 72.3168 21.1499Z" fill="#2384C5"/>
<path d="M76.9035 20.4445C77.4659 20.2054 78.1913 20.2383 78.72 20.5238C79.1032 20.7323 79.2015 21.1382 79.226 21.4894C79.2233 22.275 79.2242 23.0613 79.2215 23.8468C78.8283 23.8423 78.4352 23.8431 78.042 23.8468C78.0411 23.1869 78.0411 22.5269 78.0429 21.8669C78.0438 21.6808 78.0311 21.4865 77.9273 21.3175C77.8181 21.1509 77.5733 21.1135 77.3777 21.0515C77.1347 21.106 76.8362 21.1292 76.6951 21.3258C76.565 21.5089 76.484 21.7204 76.4912 21.9342C76.4931 22.571 76.4949 23.2085 76.4912 23.8461C76.1117 23.8431 75.7332 23.8513 75.3555 23.8401C75.3582 22.6831 75.3555 21.5268 75.3564 20.3706C75.7177 20.3706 76.079 20.3706 76.4412 20.3706C76.4485 20.5133 76.4576 20.6561 76.4758 20.7988C76.6223 20.6845 76.7333 20.5372 76.9035 20.4445Z" fill="#2384C5"/>
<path d="M84.3898 20.3956C84.6283 20.2842 84.9077 20.2947 85.1734 20.2812C85.1907 20.6146 85.1843 20.948 85.1825 21.2813C85.0615 21.2604 84.9423 21.238 84.8239 21.214C84.4454 21.2581 84.0149 21.3859 83.8975 21.72C83.7391 22.4204 83.8538 23.1372 83.8229 23.845C83.4415 23.8435 83.0611 23.8427 82.6816 23.848C82.6762 22.6902 82.7053 21.5317 82.668 20.3747C83.0311 20.3687 83.3951 20.3702 83.7592 20.3687C83.7692 20.5443 83.7755 20.7207 83.7937 20.8964C83.9566 20.705 84.1214 20.495 84.3898 20.3956Z" fill="#2384C5"/>
<path d="M85.8532 20.8503C86.2609 20.443 86.9234 20.2494 87.555 20.2912C88.2385 20.2651 88.9556 20.5289 89.3015 21.0282C89.64 21.4251 89.6082 21.9274 89.6 22.3885C88.5734 22.3923 87.5468 22.3781 86.5212 22.4012C86.5585 22.7032 86.7432 23.0141 87.1036 23.1322C87.5505 23.3191 88.1675 23.1898 88.3969 22.8101C88.79 22.7981 89.1841 22.7959 89.5781 22.8026C89.4589 23.3549 88.8874 23.7869 88.234 23.9103C87.5905 24.0343 86.8779 23.9955 86.2991 23.7152C85.7804 23.4969 85.4737 23.0365 85.4045 22.5739C85.2999 21.9842 85.3754 21.3249 85.8532 20.8503ZM86.553 21.7547C87.1755 21.7554 87.798 21.7569 88.4205 21.7517C88.4169 21.3115 87.8799 21.014 87.3776 21.0716C86.9198 21.0775 86.6413 21.4213 86.553 21.7547Z" fill="#2384C5"/>
<path d="M0.0102384 21.5259C3.1855 21.5274 6.36076 21.5349 9.53511 21.5229C9.61429 21.8189 9.6061 22.1224 9.60883 22.4236C6.40899 22.4378 3.20916 22.4161 0.0102384 22.4341C-0.00341279 22.1314 -0.00341279 21.8286 0.0102384 21.5259Z" fill="#2384C5"/>
<path d="M15.418 21.5254C19.4405 21.5396 23.464 21.5119 27.4865 21.5396C27.4829 21.8386 27.4911 22.1383 27.4692 22.4372C23.7716 22.4148 20.073 22.4343 16.3745 22.4275C16.2725 22.4171 16.1324 22.4515 16.0705 22.3618C15.8375 22.0912 15.6318 21.8057 15.418 21.5254Z" fill="#2384C5"/>
<path d="M30.041 21.5266C33.1772 21.5289 36.3133 21.5311 39.4485 21.5259C39.4567 21.8263 39.4512 22.1276 39.4549 22.428C36.3178 22.4325 33.1808 22.4176 30.0447 22.4355C30.0265 22.1328 30.0283 21.8293 30.041 21.5266Z" fill="#2384C5"/>
<path d="M46.3164 21.5491C47.7134 21.5012 49.114 21.5416 50.5119 21.5281C53.8628 21.5274 57.2137 21.5304 60.5646 21.5266C60.57 21.8271 60.5655 22.1276 60.5691 22.4288C56.3937 22.4265 52.2192 22.4288 48.0437 22.4273C47.9054 22.4318 47.7653 22.4116 47.656 22.3376C47.2056 22.079 46.7314 21.848 46.3164 21.5491Z" fill="#2384C5"/>
<path d="M50.0508 23.271C53.5537 23.3069 57.0593 23.2695 60.564 23.2904C60.564 23.4616 60.5695 23.6335 60.5713 23.8054C57.7318 23.8106 54.8924 23.8099 52.053 23.8062C51.3586 23.7262 50.6624 23.5535 50.0508 23.271Z" fill="#2384C5"/>
<path d="M0.00812286 23.2781C3.21888 23.3005 6.42963 23.2915 9.63948 23.2773C9.64858 23.4777 9.66405 23.6802 9.63129 23.8805C6.42417 23.8902 3.21524 23.879 0.00721328 23.8865C0.00266289 23.6832 0.00266239 23.4806 0.00812286 23.2781Z" fill="#2384C5"/>
<path d="M16.8359 23.2968C20.3816 23.2714 23.93 23.311 27.4766 23.2773C27.4857 23.4784 27.5011 23.681 27.4684 23.8813C24.102 23.8865 20.7338 23.885 17.3665 23.882C17.1263 23.7467 17.0143 23.4866 16.8359 23.2968Z" fill="#2384C5"/>
<path d="M30.0312 23.2924C33.171 23.2894 36.3108 23.2849 39.4506 23.2939C39.4515 23.4934 39.4524 23.6923 39.4496 23.8918C36.3126 23.8761 33.1747 23.8858 30.0376 23.8866C30.0331 23.6885 30.0312 23.4904 30.0312 23.2924Z" fill="#2384C5"/>
</g>
</g>
<defs>
<clipPath id="clip0_14638_5225">
<rect width="106.667" height="24" fill="white"/>
</clipPath>
<clipPath id="clip1_14638_5225">
<rect width="106.667" height="24" fill="white"/>
</clipPath>
</defs>
</svg>
